<svg width="98.408" height="26.572" viewBox="0 0 98.408 26.572" xmlns="http://www.w3.org/2000/svg"><g id="svgGroup" stroke-linecap="round" fill-rule="evenodd" font-size="9pt" stroke="#243041" stroke-width="5.3" fill="#36292900" style="stroke:#243041;stroke-width:5.3;fill:#36292900"><path d="M 26.821 8.423 L 29.429 8.423 A 66.996 66.996 0 0 1 29.852 10.431 A 76.507 76.507 0 0 1 29.985 11.133 Q 30.22 12.349 30.483 13.85 Q 30.747 15.352 30.967 16.86 A 76.812 76.812 0 0 0 31.135 15.303 A 84.391 84.391 0 0 0 31.157 15.073 A 257.19 257.19 0 0 0 31.326 13.235 A 139.46 139.46 0 0 0 31.472 11.44 A 1969.753 1969.753 0 0 0 31.536 10.583 A 1681.87 1681.87 0 0 0 31.597 9.771 Q 31.729 7.925 31.831 6.152 L 35.317 6.27 A 684.278 684.278 0 0 0 34.248 11.909 A 459.006 459.006 0 0 1 33.847 14.047 A 507.71 507.71 0 0 1 33.787 14.363 A 734.217 734.217 0 0 0 33.311 16.882 A 7077.053 7077.053 0 0 1 32.912 19.012 A 6271.498 6271.498 0 0 1 32.856 19.307 A 460.021 460.021 0 0 0 32.648 20.427 A 344.289 344.289 0 0 0 32.461 21.445 L 29.106 21.475 A 205.618 205.618 0 0 0 28.835 19.365 A 422.529 422.529 0 0 1 28.635 17.846 A 377.901 377.901 0 0 1 28.572 17.358 Q 28.447 16.392 28.33 15.527 A 258.607 258.607 0 0 0 28.217 14.7 A 196.171 196.171 0 0 0 28.11 13.945 A 102.682 102.682 0 0 1 27.974 15.086 Q 27.911 15.593 27.837 16.152 A 192.671 192.671 0 0 1 27.678 17.322 A 93.009 93.009 0 0 1 27.247 20.111 A 109.549 109.549 0 0 1 27.012 21.445 L 23.643 21.475 A 81.437 81.437 0 0 0 23.513 20.458 A 108.102 108.102 0 0 0 23.357 19.343 A 296.95 296.95 0 0 0 23.045 17.244 A 328.78 328.78 0 0 0 22.998 16.934 A 177.676 177.676 0 0 0 22.595 14.421 A 510.477 510.477 0 0 1 22.289 12.574 A 453.195 453.195 0 0 1 22.192 11.982 A 704.146 704.146 0 0 0 21.211 6.357 L 24.727 6.328 Q 24.858 8.042 25.02 9.829 A 175.369 175.369 0 0 0 25.082 10.615 A 209.449 209.449 0 0 0 25.151 11.448 Q 25.225 12.305 25.305 13.198 A 103.495 103.495 0 0 1 25.452 15 A 147.117 147.117 0 0 0 25.591 16.772 Q 25.708 16.025 25.833 15.271 Q 25.957 14.517 26.067 13.792 Q 26.177 13.066 26.272 12.385 A 221.732 221.732 0 0 1 26.365 11.724 A 183.932 183.932 0 0 1 26.455 11.104 Q 26.646 9.697 26.821 8.423 Z M 0 0.381 L 3.896 0.381 Q 3.75 3.281 3.647 6.13 Q 3.545 8.979 3.501 11.851 A 9.273 9.273 0 0 0 4.241 11.88 L 4.98 11.88 A 32.168 32.168 0 0 0 5.94 11.865 A 34.232 34.232 0 0 0 6.929 11.821 A 27.908 27.908 0 0 0 6.958 10.554 L 6.958 9.272 A 223.444 223.444 0 0 0 6.914 4.834 Q 6.87 2.622 6.768 0.381 L 10.371 0.381 A 203.086 203.086 0 0 0 9.968 7.39 Q 9.829 10.869 9.829 14.399 A 134.293 134.293 0 0 0 9.873 17.842 A 211.486 211.486 0 0 0 9.99 21.299 L 6.65 21.299 A 428.559 428.559 0 0 0 6.782 17.827 L 6.899 14.37 Q 6.064 14.326 5.237 14.29 A 37.276 37.276 0 0 0 3.589 14.253 L 3.472 14.253 L 3.472 17.271 L 3.472 19.292 A 69.264 69.264 0 0 0 3.501 21.299 L 0.146 21.299 Q 0.22 19.189 0.242 17.131 Q 0.264 15.073 0.264 12.993 A 302.226 302.226 0 0 0 0 0.381 Z M 94.658 6.152 L 98.115 6.24 A 386.519 386.519 0 0 1 98.328 12.605 Q 98.408 15.806 98.408 19.131 Q 98.408 21.24 98.232 22.661 A 8.103 8.103 0 0 1 98.056 23.631 Q 97.863 24.402 97.529 24.954 A 2.926 2.926 0 0 1 96.021 26.199 Q 95.319 26.466 94.295 26.542 A 11.721 11.721 0 0 1 93.428 26.572 Q 92.607 26.572 91.538 26.499 Q 90.619 26.436 89.484 26.297 A 56.062 56.062 0 0 1 89.106 26.25 L 89.224 23.042 A 149.885 149.885 0 0 0 90.114 23.1 Q 90.658 23.134 91.128 23.159 L 92.52 23.232 A 23.216 23.216 0 0 0 92.989 23.259 Q 93.221 23.27 93.426 23.274 A 12.05 12.05 0 0 0 93.662 23.276 Q 94.014 23.276 94.263 23.196 A 0.783 0.783 0 0 0 94.666 22.903 A 1.038 1.038 0 0 0 94.773 22.711 Q 94.815 22.616 94.848 22.501 A 2.318 2.318 0 0 0 94.893 22.31 Q 94.942 22.054 94.958 21.699 A 8.179 8.179 0 0 0 94.966 21.328 L 94.966 20.94 A 3.19 3.19 0 0 0 94.959 20.743 Q 94.952 20.625 94.937 20.493 A 2.255 2.255 0 0 1 94.669 20.825 A 1.796 1.796 0 0 1 94.402 21.05 A 3.403 3.403 0 0 1 94.066 21.253 A 2.75 2.75 0 0 1 93.809 21.372 Q 93.516 21.489 93.245 21.526 A 5.234 5.234 0 0 1 93.07 21.547 Q 92.991 21.555 92.923 21.559 A 2.179 2.179 0 0 1 92.798 21.563 A 4.792 4.792 0 0 1 92.036 21.505 Q 91.36 21.396 90.879 21.079 A 3.206 3.206 0 0 1 89.769 19.813 A 3.792 3.792 0 0 1 89.744 19.761 A 5.586 5.586 0 0 1 89.38 18.762 A 7.564 7.564 0 0 1 89.194 17.805 A 17.293 17.293 0 0 1 89.068 16.344 A 20.718 20.718 0 0 1 89.048 15.41 A 71.245 71.245 0 0 0 89.048 15.178 Q 89.047 14.885 89.043 14.726 A 5.939 5.939 0 0 0 89.041 14.641 A 10.95 10.95 0 0 0 89.038 14.572 Q 89.032 14.446 89.027 14.406 A 0.214 0.214 0 0 0 89.026 14.399 Q 89.02 14.362 89.019 14.362 A 0.013 0.013 0 0 1 89.019 14.363 Q 89.021 14.345 89.033 14.216 A 7.479 7.479 0 0 0 89.041 14.129 Q 89.055 13.963 89.077 13.638 A 133.589 133.589 0 0 0 89.094 13.395 Q 89.12 13.006 89.161 12.372 A 830.026 830.026 0 0 0 89.165 12.305 Q 89.217 11.492 89.287 10.217 A 444.708 444.708 0 0 0 89.304 9.91 Q 89.381 8.497 89.49 6.35 A 2147.151 2147.151 0 0 0 89.502 6.123 L 92.886 6.416 Q 92.925 6.416 92.852 6.874 A 12.933 12.933 0 0 1 92.834 6.98 A 17.785 17.785 0 0 0 92.785 7.291 Q 92.708 7.802 92.615 8.577 Q 92.529 9.287 92.447 10.194 A 90.159 90.159 0 0 0 92.373 11.06 Q 92.256 12.51 92.256 14.282 A 17.034 17.034 0 0 0 92.271 15.029 Q 92.287 15.395 92.32 15.713 A 8.273 8.273 0 0 0 92.366 16.077 Q 92.476 16.816 92.666 17.285 Q 92.856 17.754 93.127 17.966 Q 93.398 18.179 93.735 18.179 Q 94.302 18.179 94.677 17.322 A 3.497 3.497 0 0 0 94.702 17.263 Q 95.014 16.515 95.07 15.037 A 18.153 18.153 0 0 0 95.083 14.341 A 5.661 5.661 0 0 0 95.082 14.218 Q 95.08 14.156 95.078 14.087 A 9.48 9.48 0 0 0 95.076 14.041 A 11.362 11.362 0 0 1 95.072 13.946 Q 95.067 13.79 95.061 13.542 Q 95.054 13.213 95.024 12.686 A 248.063 248.063 0 0 0 95.008 12.4 Q 94.982 11.94 94.944 11.287 A 249.002 249.002 0 0 1 94.903 10.579 Q 94.868 9.945 94.827 9.163 A 390.746 390.746 0 0 0 94.772 8.152 Q 94.722 7.251 94.658 6.152 Z M 87.393 21.533 L 84.844 21.387 L 84.844 19.409 Q 84.404 20.2 83.848 20.618 A 6.084 6.084 0 0 1 83.372 20.942 Q 83.129 21.091 82.899 21.195 A 3.468 3.468 0 0 1 82.793 21.24 A 3.787 3.787 0 0 1 82.012 21.463 A 3.296 3.296 0 0 1 81.636 21.504 Q 80.933 21.504 80.317 21.189 Q 79.702 20.874 79.248 20.347 A 3.986 3.986 0 0 1 78.538 19.138 A 3.981 3.981 0 0 1 78.281 17.725 A 4.018 4.018 0 0 1 78.597 16.178 A 4.623 4.623 0 0 1 78.64 16.077 A 3.363 3.363 0 0 1 79.234 15.177 A 4.653 4.653 0 0 1 79.863 14.604 A 82.365 82.365 0 0 1 80.688 13.976 Q 81.014 13.731 81.309 13.514 A 42.154 42.154 0 0 1 81.87 13.11 Q 82.72 12.51 83.284 12.019 Q 83.848 11.528 84.119 11.082 A 1.872 1.872 0 0 0 84.377 10.3 A 2.351 2.351 0 0 0 84.39 10.049 A 4.66 4.66 0 0 0 84.364 9.544 Q 84.299 8.948 84.067 8.606 A 1.197 1.197 0 0 0 83.811 8.326 A 0.942 0.942 0 0 0 83.218 8.13 A 1.027 1.027 0 0 0 82.941 8.166 A 0.825 0.825 0 0 0 82.668 8.298 A 1.227 1.227 0 0 0 82.334 8.68 A 1.445 1.445 0 0 0 82.302 8.738 A 2.207 2.207 0 0 0 82.135 9.177 A 2.588 2.588 0 0 0 82.097 9.338 A 3.318 3.318 0 0 0 82.031 9.99 A 5.089 5.089 0 0 0 82.037 10.221 A 6.723 6.723 0 0 0 82.053 10.474 A 3.248 3.248 0 0 0 82.101 10.815 A 3.965 3.965 0 0 0 82.148 11.03 L 78.779 11.089 A 9.45 9.45 0 0 1 78.744 10.735 A 8.16 8.16 0 0 1 78.735 10.613 A 6.939 6.939 0 0 1 78.721 10.166 A 5.438 5.438 0 0 1 79.028 8.372 A 4.882 4.882 0 0 1 79.929 6.79 A 4.541 4.541 0 0 1 81.372 5.669 A 3.997 3.997 0 0 1 82.626 5.29 A 5.109 5.109 0 0 1 83.32 5.244 A 5.521 5.521 0 0 1 84.208 5.311 Q 85.019 5.443 85.569 5.837 A 3.774 3.774 0 0 1 86.829 7.397 Q 87.261 8.364 87.385 9.587 A 24.651 24.651 0 0 1 87.51 12.085 A 487.603 487.603 0 0 1 87.488 16.714 A 237.329 237.329 0 0 1 87.426 20.293 A 267.109 267.109 0 0 1 87.393 21.533 Z M 42.231 1.67 L 45.981 1.641 A 115.519 115.519 0 0 0 45.787 3.807 A 105.711 105.711 0 0 0 45.776 3.948 Q 45.688 5.068 45.615 6.182 Q 46.172 6.152 46.721 6.13 Q 47.271 6.108 47.842 6.05 L 47.739 9.023 A 21.601 21.601 0 0 0 46.604 8.994 L 45.469 8.994 Q 45.352 11.104 45.3 13.118 A 159.748 159.748 0 0 0 45.249 17.183 A 102.328 102.328 0 0 0 45.271 19.299 A 338.954 338.954 0 0 0 45.322 21.445 L 42.1 21.504 A 708.778 708.778 0 0 0 42.275 15.271 Q 42.349 12.188 42.349 9.053 A 79.86 79.86 0 0 1 41.221 9.104 Q 40.649 9.126 40.093 9.17 L 40.21 5.962 A 17.405 17.405 0 0 0 41.265 6.079 A 44.645 44.645 0 0 0 42.255 6.149 A 40.957 40.957 0 0 0 42.319 6.152 A 112.113 112.113 0 0 0 42.297 3.911 A 121.593 121.593 0 0 0 42.231 1.67 Z M 67.148 21.533 L 63.574 21.533 A 178.334 178.334 0 0 0 63.918 14.883 A 202.718 202.718 0 0 0 64.028 8.188 Q 64.028 6.24 63.999 4.299 A 133.703 133.703 0 0 0 63.882 0.381 Q 64.658 0.146 65.457 0.073 A 21.125 21.125 0 0 1 66.021 0.029 Q 66.464 0 66.812 0 A 4.57 4.57 0 0 1 67.133 0.012 Q 67.423 0.033 67.786 0.088 A 4.826 4.826 0 0 1 68.526 0.264 A 5.982 5.982 0 0 1 68.987 0.432 A 5.384 5.384 0 0 1 69.765 0.833 A 6.681 6.681 0 0 1 70.232 1.15 A 4.206 4.206 0 0 1 70.927 1.806 A 5.464 5.464 0 0 1 71.353 2.38 Q 71.851 3.149 72.158 4.248 Q 72.422 5.19 72.46 6.444 A 14.21 14.21 0 0 1 72.466 6.87 Q 72.466 8.13 72.136 9.338 A 7.644 7.644 0 0 1 71.125 11.572 A 7.337 7.337 0 0 1 69.469 13.332 A 8.252 8.252 0 0 1 69.404 13.381 A 7.062 7.062 0 0 1 67.794 14.282 A 8.693 8.693 0 0 1 66.943 14.575 Q 66.973 16.348 67.024 18.083 A 261.878 261.878 0 0 0 67.148 21.533 Z M 73.125 0.688 L 76.934 0.513 L 76.934 6.467 A 1643.445 1643.445 0 0 0 76.935 8.669 Q 76.936 9.676 76.939 10.579 A 955.608 955.608 0 0 0 76.941 11.169 Q 76.948 13.228 76.956 14.758 Q 76.961 15.811 76.962 16.659 A 393.87 393.87 0 0 1 76.963 17.388 A 1224.947 1224.947 0 0 0 76.97 18.576 Q 76.98 20.045 76.99 20.842 A 131.237 131.237 0 0 0 76.992 21.021 Q 76.637 21.034 76.192 21.073 A 23.176 23.176 0 0 0 76.128 21.079 Q 75.846 21.099 75.498 21.126 A 153.482 153.482 0 0 0 75.168 21.152 A 34.453 34.453 0 0 0 74.592 21.204 A 45.47 45.47 0 0 0 73.96 21.27 A 934.556 934.556 0 0 0 73.842 17.145 Q 73.783 15.262 73.723 13.584 A 528.603 528.603 0 0 0 73.682 12.488 Q 73.535 8.672 73.418 6.035 A 425.456 425.456 0 0 0 73.308 3.841 Q 73.262 2.974 73.217 2.186 A 234.365 234.365 0 0 0 73.125 0.688 Z M 20.376 16.157 A 18.518 18.518 0 0 0 20.418 15.77 Q 20.537 14.558 20.537 13.022 Q 20.537 11.906 20.468 10.977 A 17.519 17.519 0 0 0 20.361 9.932 Q 20.186 8.628 19.878 7.712 Q 19.705 7.197 19.495 6.791 A 4.119 4.119 0 0 0 19.146 6.226 A 4.352 4.352 0 0 0 18.761 5.773 A 3.233 3.233 0 0 0 18.23 5.332 Q 17.739 5.01 17.19 4.9 Q 16.641 4.79 16.099 4.79 Q 15.249 4.79 14.443 5.164 Q 13.94 5.397 13.505 5.865 A 4.679 4.679 0 0 0 13.008 6.511 A 5.464 5.464 0 0 0 12.66 7.141 Q 12.264 7.978 11.99 9.17 A 12.569 12.569 0 0 0 11.788 10.296 Q 11.602 11.666 11.602 13.491 Q 11.602 14.59 11.662 15.511 A 20.045 20.045 0 0 0 11.755 16.553 A 19.47 19.47 0 0 0 11.805 16.939 Q 11.951 17.998 12.188 18.794 Q 12.344 19.321 12.54 19.742 A 4.37 4.37 0 0 0 12.869 20.332 A 4.406 4.406 0 0 0 13.237 20.81 A 3.284 3.284 0 0 0 13.755 21.284 Q 14.238 21.636 14.802 21.768 A 4.815 4.815 0 0 0 14.908 21.791 A 5.207 5.207 0 0 0 15.981 21.899 Q 16.597 21.899 17.183 21.738 A 2.979 2.979 0 0 0 17.274 21.712 A 3.105 3.105 0 0 0 18.274 21.182 A 3.626 3.626 0 0 0 18.765 20.714 A 4.827 4.827 0 0 0 19.197 20.134 Q 19.614 19.482 19.915 18.494 A 9.567 9.567 0 0 0 19.997 18.207 Q 20.115 17.767 20.209 17.263 A 17.239 17.239 0 0 0 20.376 16.157 Z M 57.114 16.157 A 18.518 18.518 0 0 0 57.156 15.77 Q 57.275 14.558 57.275 13.022 Q 57.275 11.906 57.207 10.977 A 17.519 17.519 0 0 0 57.1 9.932 Q 56.924 8.628 56.616 7.712 Q 56.443 7.197 56.233 6.791 A 4.119 4.119 0 0 0 55.884 6.226 A 4.352 4.352 0 0 0 55.499 5.773 A 3.233 3.233 0 0 0 54.968 5.332 Q 54.478 5.01 53.928 4.9 Q 53.379 4.79 52.837 4.79 Q 51.987 4.79 51.182 5.164 Q 50.678 5.397 50.243 5.865 A 4.679 4.679 0 0 0 49.746 6.511 A 5.464 5.464 0 0 0 49.399 7.141 Q 49.003 7.978 48.728 9.17 A 12.569 12.569 0 0 0 48.526 10.296 Q 48.34 11.666 48.34 13.491 Q 48.34 14.59 48.4 15.511 A 20.045 20.045 0 0 0 48.494 16.553 A 19.47 19.47 0 0 0 48.543 16.939 Q 48.69 17.998 48.926 18.794 Q 49.082 19.321 49.278 19.742 A 4.37 4.37 0 0 0 49.607 20.332 A 4.406 4.406 0 0 0 49.975 20.81 A 3.284 3.284 0 0 0 50.493 21.284 Q 50.977 21.636 51.541 21.768 A 4.815 4.815 0 0 0 51.647 21.791 A 5.207 5.207 0 0 0 52.72 21.899 Q 53.335 21.899 53.921 21.738 A 2.979 2.979 0 0 0 54.012 21.712 A 3.105 3.105 0 0 0 55.012 21.182 A 3.626 3.626 0 0 0 55.503 20.714 A 4.827 4.827 0 0 0 55.935 20.134 Q 56.353 19.482 56.653 18.494 A 9.567 9.567 0 0 0 56.735 18.207 Q 56.854 17.767 56.947 17.263 A 17.239 17.239 0 0 0 57.114 16.157 Z M 17.388 13.14 A 31.832 31.832 0 0 0 17.376 12.233 Q 17.364 11.828 17.341 11.478 A 13.337 13.337 0 0 0 17.285 10.833 A 11.775 11.775 0 0 0 17.214 10.306 Q 17.133 9.803 17.023 9.453 A 3.43 3.43 0 0 0 17.007 9.404 A 2.839 2.839 0 0 0 16.902 9.134 Q 16.781 8.865 16.631 8.722 A 0.716 0.716 0 0 0 16.582 8.679 Q 16.333 8.481 16.04 8.481 Q 15.703 8.481 15.454 8.767 Q 15.205 9.053 15.037 9.683 A 6.462 6.462 0 0 0 14.926 10.182 Q 14.837 10.668 14.78 11.301 A 19.714 19.714 0 0 0 14.727 12.104 Q 14.71 12.463 14.701 12.865 A 39.681 39.681 0 0 0 14.692 13.711 A 30.998 30.998 0 0 0 14.707 14.679 Q 14.732 15.486 14.802 16.091 Q 14.912 17.034 15.109 17.597 A 3.168 3.168 0 0 0 15.11 17.6 Q 15.298 18.136 15.552 18.374 A 0.894 0.894 0 0 0 15.579 18.398 Q 15.85 18.633 16.157 18.633 A 0.624 0.624 0 0 0 16.631 18.404 Q 16.842 18.17 16.991 17.696 A 4.727 4.727 0 0 0 17.095 17.3 A 8.815 8.815 0 0 0 17.223 16.54 Q 17.336 15.665 17.371 14.397 A 44.894 44.894 0 0 0 17.388 13.14 Z M 54.126 13.14 A 31.832 31.832 0 0 0 54.114 12.233 Q 54.102 11.828 54.08 11.478 A 13.337 13.337 0 0 0 54.023 10.833 A 11.775 11.775 0 0 0 53.952 10.306 Q 53.872 9.803 53.761 9.453 A 3.43 3.43 0 0 0 53.745 9.404 A 2.839 2.839 0 0 0 53.64 9.134 Q 53.519 8.865 53.369 8.722 A 0.716 0.716 0 0 0 53.32 8.679 Q 53.071 8.481 52.778 8.481 Q 52.441 8.481 52.192 8.767 Q 51.943 9.053 51.775 9.683 A 6.462 6.462 0 0 0 51.664 10.182 Q 51.575 10.668 51.519 11.301 A 19.714 19.714 0 0 0 51.465 12.104 Q 51.448 12.463 51.439 12.865 A 39.681 39.681 0 0 0 51.431 13.711 A 30.998 30.998 0 0 0 51.445 14.679 Q 51.47 15.486 51.541 16.091 Q 51.65 17.034 51.847 17.597 A 3.168 3.168 0 0 0 51.848 17.6 Q 52.036 18.136 52.29 18.374 A 0.894 0.894 0 0 0 52.317 18.398 Q 52.588 18.633 52.896 18.633 A 0.624 0.624 0 0 0 53.369 18.404 Q 53.581 18.17 53.729 17.696 A 4.727 4.727 0 0 0 53.833 17.3 A 8.815 8.815 0 0 0 53.961 16.54 Q 54.074 15.665 54.109 14.397 A 44.894 44.894 0 0 0 54.126 13.14 Z M 66.943 11.572 L 66.943 12.085 A 3.038 3.038 0 0 0 67.518 11.808 A 2.616 2.616 0 0 0 67.786 11.616 A 3.782 3.782 0 0 0 68.416 10.964 Q 68.687 10.605 68.87 10.195 A 6.741 6.741 0 0 0 69.107 9.588 A 5.941 5.941 0 0 0 69.17 9.39 A 7.626 7.626 0 0 0 69.442 8.045 A 9.172 9.172 0 0 0 69.492 7.383 Q 69.492 7.368 69.485 7.046 A 4.92 4.92 0 0 0 69.473 6.804 Q 69.464 6.68 69.449 6.537 A 11.494 11.494 0 0 0 69.412 6.233 Q 69.346 5.742 69.199 5.149 A 6.027 6.027 0 0 0 68.796 4.014 A 3.805 3.805 0 0 0 68.137 3.04 Q 67.734 2.607 67.148 2.432 Q 67.031 4.702 66.987 6.98 A 238.084 238.084 0 0 0 66.943 11.572 Z M 84.214 16.23 A 9.671 9.671 0 0 0 84.279 15.865 Q 84.31 15.672 84.338 15.457 A 16.062 16.062 0 0 0 84.346 15.396 Q 84.391 15.093 84.427 14.691 A 20.79 20.79 0 0 0 84.448 14.436 A 29.962 29.962 0 0 0 84.488 13.847 Q 84.506 13.536 84.521 13.191 A 49.206 49.206 0 0 0 84.521 13.169 A 8.926 8.926 0 0 1 84.291 13.473 A 6.792 6.792 0 0 1 84.067 13.74 A 11.337 11.337 0 0 1 83.855 13.975 A 8.284 8.284 0 0 1 83.657 14.18 Q 83.438 14.399 83.247 14.575 Q 82.91 14.854 82.529 15.198 A 6.933 6.933 0 0 0 81.833 15.923 A 4.718 4.718 0 0 0 81.404 16.531 A 4.197 4.197 0 0 0 81.306 16.707 A 1.967 1.967 0 0 0 81.155 17.076 A 1.484 1.484 0 0 0 81.094 17.49 A 1.157 1.157 0 0 0 81.326 18.185 A 1.467 1.467 0 0 0 81.372 18.245 Q 81.65 18.589 82.061 18.589 A 1.201 1.201 0 0 0 82.434 18.527 A 1.643 1.643 0 0 0 82.698 18.413 A 2.202 2.202 0 0 0 83.079 18.153 A 2.845 2.845 0 0 0 83.328 17.915 Q 83.628 17.593 83.862 17.168 A 3.498 3.498 0 0 0 84.166 16.42 A 4.007 4.007 0 0 0 84.214 16.23 Z" vector-effect="non-scaling-stroke"/></g></svg>