<svg width="225.591" height="67.608" viewBox="0 0 225.591 67.608" xmlns="http://www.w3.org/2000/svg"><g id="svgGroup" stroke-linecap="round" fill-rule="evenodd" font-size="9pt" stroke="#243041" stroke-width="17" fill="#00000000" style="stroke:#243041;stroke-width:17;fill:#00000000"><path d="M 21.71 0 L 33.001 0.275 Q 29.329 11.934 26.139 23.798 A 2248.569 2248.569 0 0 0 21.548 41.144 A 2013.934 2013.934 0 0 0 20.104 46.725 L 20.104 49.57 A 140.703 140.703 0 0 0 20.121 51.802 A 118.249 118.249 0 0 0 20.172 53.908 A 330.022 330.022 0 0 0 20.333 57.947 Q 20.425 59.943 20.585 62.032 A 194.893 194.893 0 0 0 20.763 64.183 A 231.889 231.889 0 0 0 20.976 66.461 L 9.96 66.461 Q 10.327 63.615 10.603 61.16 Q 10.878 58.704 11.039 56.317 A 159.242 159.242 0 0 0 11.288 51.485 A 172.786 172.786 0 0 0 11.291 51.406 A 134.32 134.32 0 0 0 11.36 48.767 A 172.346 172.346 0 0 0 11.383 45.898 A 4678.596 4678.596 0 0 0 9.391 37.749 A 5237.689 5237.689 0 0 0 8.698 34.929 A 1248.553 1248.553 0 0 0 5.829 23.5 Q 4.36 17.763 2.892 12.094 A 1174.63 1174.63 0 0 0 0.356 2.473 A 1058.445 1058.445 0 0 0 0 1.147 L 11.475 0.184 A 137.244 137.244 0 0 0 11.803 5.059 A 162.658 162.658 0 0 0 12.094 8.147 Q 12.53 12.347 13.127 16.707 A 324.37 324.37 0 0 0 14.458 25.52 A 511.094 511.094 0 0 0 15.973 34.24 Q 16.845 29.88 17.694 25.359 A 442.217 442.217 0 0 0 19.277 16.432 A 487.784 487.784 0 0 0 20.593 8.11 A 448.135 448.135 0 0 0 20.631 7.849 A 382.483 382.483 0 0 0 21.211 3.798 A 313.845 313.845 0 0 0 21.71 0 Z M 83.489 20.976 L 93.816 20.792 Q 93.449 28.182 93.312 35.411 A 762.794 762.794 0 0 0 93.174 49.938 A 1570.985 1570.985 0 0 0 93.197 58.475 A 322.61 322.61 0 0 0 93.357 67.012 L 84.224 67.241 L 84.224 61.504 Q 82.847 63.753 81.148 64.946 A 16.184 16.184 0 0 1 79.693 65.863 Q 78.921 66.291 78.184 66.57 A 9.436 9.436 0 0 1 77.913 66.667 A 14.924 14.924 0 0 1 76.864 66.988 Q 75.979 67.22 75.273 67.264 A 166.341 166.341 0 0 1 74.893 67.288 Q 74.137 67.333 73.988 67.333 A 9.687 9.687 0 0 1 70.993 66.201 A 8.682 8.682 0 0 1 69.192 64.786 A 13.245 13.245 0 0 1 66.952 61.668 A 16.593 16.593 0 0 1 66.163 59.92 A 24.959 24.959 0 0 1 65.108 56.402 A 32.278 32.278 0 0 1 64.579 53.334 A 60.172 60.172 0 0 1 64.149 47.62 A 68.715 68.715 0 0 1 64.12 45.623 A 93.94 93.94 0 0 1 64.396 38.509 A 173.615 173.615 0 0 1 65.084 31.372 A 195.297 195.297 0 0 1 65.877 25.403 A 177.633 177.633 0 0 1 66.002 24.579 A 301.154 301.154 0 0 1 66.507 21.406 A 244.611 244.611 0 0 1 67.012 18.451 L 77.018 18.635 A 364.521 364.521 0 0 0 76.599 21.458 A 459.415 459.415 0 0 0 76.168 24.51 A 197.411 197.411 0 0 0 75.388 30.981 A 159.198 159.198 0 0 0 74.837 37.614 Q 74.631 40.941 74.631 43.925 A 58.408 58.408 0 0 0 74.716 47.145 A 47.415 47.415 0 0 0 74.86 49.065 Q 75.058 51.117 75.458 52.71 A 16.48 16.48 0 0 0 75.595 53.219 Q 76.1 54.986 76.903 55.973 A 2.822 2.822 0 0 0 77.62 56.612 A 2.411 2.411 0 0 0 78.899 56.96 Q 80.313 56.96 81.275 55.416 A 6.048 6.048 0 0 0 81.47 55.078 A 12.216 12.216 0 0 0 82.192 53.429 Q 82.704 52.004 83.053 50.144 A 45.246 45.246 0 0 0 83.535 46.902 A 61.614 61.614 0 0 0 83.833 43.282 Q 84.04 39.473 84.04 35.617 A 164.088 164.088 0 0 0 83.993 31.603 A 141.184 141.184 0 0 0 83.948 30.109 Q 83.863 27.667 83.777 25.704 A 358.926 358.926 0 0 0 83.765 25.428 A 557.447 557.447 0 0 0 83.627 23.121 A 449.242 449.242 0 0 0 83.489 20.976 Z M 138.843 56.593 L 138.843 66.186 A 303.062 303.062 0 0 0 134.468 66.06 A 274.641 274.641 0 0 0 133.863 66.048 Q 131.453 66.002 129.066 66.002 A 215.005 215.005 0 0 0 121.998 66.117 A 247.939 247.939 0 0 0 115.718 66.405 A 273.159 273.159 0 0 0 114.792 66.461 A 929 929 0 0 0 115.458 49.547 Q 115.71 41.171 115.71 32.634 A 632.983 632.983 0 0 0 115.503 16.409 Q 115.297 8.354 114.792 0.184 Q 115.186 0.223 115.683 0.229 A 14.771 14.771 0 0 0 115.848 0.229 A 9.814 9.814 0 0 0 116.259 0.257 Q 116.443 0.266 116.65 0.271 A 20.213 20.213 0 0 0 117.087 0.275 L 118.739 0.275 A 71.082 71.082 0 0 0 120.271 0.258 A 90.259 90.259 0 0 0 121.929 0.207 A 89.46 89.46 0 0 0 125.395 0 A 242.733 242.733 0 0 0 124.694 10.273 A 279.909 279.909 0 0 0 124.545 13.907 Q 124.293 21.205 124.224 28.664 A 2424.221 2424.221 0 0 0 124.132 43.535 A 870.572 870.572 0 0 1 124.033 54.357 A 778.882 778.882 0 0 1 123.972 57.832 A 138.771 138.771 0 0 0 131.237 57.469 A 127.921 127.921 0 0 0 131.292 57.465 A 100.028 100.028 0 0 0 135.909 56.995 A 120.322 120.322 0 0 0 138.843 56.593 Z M 172.67 63.753 L 173.037 53.288 A 16.024 16.024 0 0 0 174.911 54.597 A 13.048 13.048 0 0 0 176.388 55.354 A 25.764 25.764 0 0 0 177.919 55.961 Q 178.649 56.223 179.319 56.405 A 15.432 15.432 0 0 0 179.509 56.455 Q 181.161 56.868 182.722 56.96 A 4.903 4.903 0 0 0 184.718 55.009 A 5.573 5.573 0 0 0 185.423 52.488 A 6.662 6.662 0 0 0 185.43 52.187 A 6.493 6.493 0 0 0 185.234 50.638 A 8.776 8.776 0 0 0 184.81 49.364 A 8.512 8.512 0 0 0 183.677 47.432 A 10.613 10.613 0 0 0 182.905 46.541 A 251.646 251.646 0 0 1 181.874 45.503 Q 180.957 44.576 179.853 43.443 A 32.897 32.897 0 0 1 177.384 40.588 A 38.644 38.644 0 0 1 176.457 39.335 A 24.256 24.256 0 0 1 173.992 34.932 A 27.254 27.254 0 0 1 173.703 34.24 A 15.793 15.793 0 0 1 172.618 29.357 A 18.634 18.634 0 0 1 172.578 28.136 A 20.606 20.606 0 0 1 172.861 24.651 A 16.68 16.68 0 0 1 173.473 22.192 Q 174.368 19.507 175.998 17.579 Q 177.627 15.651 179.899 14.596 A 11.48 11.48 0 0 1 184.209 13.557 A 13.492 13.492 0 0 1 184.879 13.54 A 16.842 16.842 0 0 1 187.398 13.739 A 22.352 22.352 0 0 1 189.652 14.206 A 25.167 25.167 0 0 1 192.474 15.126 A 33.702 33.702 0 0 1 195.114 16.294 L 194.38 26.988 A 11.902 11.902 0 0 0 192.268 25.485 A 10.885 10.885 0 0 0 191.855 25.267 A 20.632 20.632 0 0 0 190.59 24.684 A 15.024 15.024 0 0 0 189.377 24.234 A 14.065 14.065 0 0 0 187.244 23.745 A 12.635 12.635 0 0 0 186.761 23.684 A 4.871 4.871 0 0 0 184.095 25.142 A 6.272 6.272 0 0 0 183.777 25.497 Q 182.538 26.988 182.538 29.329 A 9.137 9.137 0 0 0 182.735 31.268 A 6.983 6.983 0 0 0 183.433 33.162 A 15.092 15.092 0 0 0 185.473 36.01 A 16.862 16.862 0 0 0 185.682 36.237 A 46.981 46.981 0 0 0 187.855 38.406 A 53.545 53.545 0 0 0 188.643 39.128 A 23.635 23.635 0 0 1 191.385 42.069 A 26.3 26.3 0 0 1 191.649 42.41 A 17.753 17.753 0 0 1 193.379 45.195 A 21.17 21.17 0 0 1 194.036 46.633 Q 194.922 48.777 195.086 51.699 A 23.374 23.374 0 0 1 195.114 52.37 A 20.472 20.472 0 0 1 194.924 55.243 Q 194.706 56.781 194.238 58.068 A 10.915 10.915 0 0 1 193.76 59.186 A 14.507 14.507 0 0 1 192.181 61.716 A 11.553 11.553 0 0 1 190.364 63.569 A 12.753 12.753 0 0 1 185.889 65.933 A 18.404 18.404 0 0 1 183.382 66.488 A 14.428 14.428 0 0 1 181.299 66.645 A 17.407 17.407 0 0 1 178.178 66.277 A 16.311 16.311 0 0 1 176.629 65.873 A 20.811 20.811 0 0 1 175.355 65.428 A 8.343 8.343 0 0 1 172.67 63.753 Z M 224.352 56.226 L 225.591 64.854 Q 221.697 66.194 218.434 66.694 A 28.696 28.696 0 0 1 217.811 66.782 Q 214.3 67.241 212.051 67.241 A 12.047 12.047 0 0 1 209.5 66.983 A 9.35 9.35 0 0 1 207.14 66.14 Q 205.028 65.038 203.491 63.202 A 16.061 16.061 0 0 1 201.341 59.84 A 18.622 18.622 0 0 1 200.943 58.957 Q 199.934 56.547 199.337 53.885 A 42.532 42.532 0 0 1 198.488 48.492 A 60.149 60.149 0 0 1 198.271 45.195 A 50.217 50.217 0 0 1 198.235 43.328 Q 198.235 37.27 199.199 32.152 A 41.686 41.686 0 0 1 200.21 27.942 Q 200.966 25.408 201.999 23.316 A 19.319 19.319 0 0 1 203.842 20.282 A 14.272 14.272 0 0 1 206.543 17.51 A 9.806 9.806 0 0 1 212.693 15.422 A 9.792 9.792 0 0 1 217.88 16.845 Q 220.221 18.268 221.873 21.205 A 19.289 19.289 0 0 1 223.153 24.022 Q 223.673 25.44 224.077 27.102 A 37.253 37.253 0 0 1 224.42 28.664 Q 225.315 33.185 225.315 39.381 A 91.961 91.961 0 0 1 225.247 42.915 A 64.113 64.113 0 0 1 225.079 45.678 A 72.027 72.027 0 0 1 224.994 46.633 L 208.746 48.79 Q 208.93 50.488 209.32 52.003 A 12.078 12.078 0 0 0 209.846 53.598 A 9.643 9.643 0 0 0 210.375 54.688 A 6.786 6.786 0 0 0 211.104 55.738 A 5.307 5.307 0 0 0 211.959 56.547 A 3.41 3.41 0 0 0 213.511 57.184 A 4.561 4.561 0 0 0 214.208 57.235 A 41.443 41.443 0 0 0 219.165 56.937 A 160.354 160.354 0 0 0 223.012 56.425 A 184.096 184.096 0 0 0 224.352 56.226 Z M 60.352 44.43 A 105.222 105.222 0 0 0 60.448 39.794 A 103.37 103.37 0 0 0 60.418 37.252 Q 60.368 35.204 60.233 33.386 A 54.892 54.892 0 0 0 59.897 30.109 A 55.043 55.043 0 0 0 59.685 28.673 Q 59.436 27.137 59.123 25.793 A 28.995 28.995 0 0 0 58.383 23.156 A 24.659 24.659 0 0 0 58.069 22.275 Q 57.655 21.184 57.182 20.27 A 12.905 12.905 0 0 0 56.088 18.497 Q 54.757 16.707 53.219 15.697 A 9.174 9.174 0 0 0 49.96 14.343 A 17.4 17.4 0 0 0 46.541 13.999 A 12.205 12.205 0 0 0 41.354 15.169 Q 39.777 15.901 38.414 17.368 A 14.659 14.659 0 0 0 36.856 19.392 Q 35.561 21.395 34.592 24.357 A 39.024 39.024 0 0 0 33.667 27.723 Q 32.45 33.001 32.45 41.263 Q 32.45 44.705 32.638 47.592 A 62.806 62.806 0 0 0 32.932 50.855 A 61.002 61.002 0 0 0 33.087 52.067 Q 33.546 55.385 34.286 57.878 A 25.956 25.956 0 0 0 34.572 58.781 Q 35.358 61.113 36.42 62.697 A 13.806 13.806 0 0 0 37.573 64.195 A 10.289 10.289 0 0 0 39.197 65.681 Q 40.712 66.782 42.479 67.195 A 15.085 15.085 0 0 0 42.812 67.269 A 16.316 16.316 0 0 0 46.174 67.608 A 14.129 14.129 0 0 0 49.938 67.104 A 9.333 9.333 0 0 0 50.223 67.02 A 9.729 9.729 0 0 0 53.357 65.359 A 11.36 11.36 0 0 0 54.894 63.894 A 15.123 15.123 0 0 0 56.249 62.078 A 14.39 14.39 0 0 0 56.675 61.366 Q 57.207 60.419 57.672 59.28 A 26.813 26.813 0 0 0 58.498 56.937 A 29.978 29.978 0 0 0 58.754 56.04 Q 59.51 53.243 59.943 49.616 Q 60.227 47.241 60.352 44.43 Z M 169.085 44.43 A 105.222 105.222 0 0 0 169.182 39.794 A 103.37 103.37 0 0 0 169.151 37.252 Q 169.101 35.204 168.966 33.386 A 54.892 54.892 0 0 0 168.631 30.109 A 55.043 55.043 0 0 0 168.418 28.673 Q 168.17 27.137 167.856 25.793 A 28.995 28.995 0 0 0 167.116 23.156 A 24.659 24.659 0 0 0 166.802 22.275 Q 166.389 21.184 165.916 20.27 A 12.905 12.905 0 0 0 164.821 18.497 Q 163.49 16.707 161.953 15.697 A 9.174 9.174 0 0 0 158.694 14.343 A 17.4 17.4 0 0 0 155.274 13.999 A 12.205 12.205 0 0 0 150.088 15.169 Q 148.51 15.901 147.148 17.368 A 14.659 14.659 0 0 0 145.59 19.392 Q 144.295 21.395 143.326 24.357 A 39.024 39.024 0 0 0 142.4 27.723 Q 141.184 33.001 141.184 41.263 Q 141.184 44.705 141.372 47.592 A 62.806 62.806 0 0 0 141.666 50.855 A 61.002 61.002 0 0 0 141.82 52.067 Q 142.28 55.385 143.02 57.878 A 25.956 25.956 0 0 0 143.305 58.781 Q 144.091 61.113 145.154 62.697 A 13.806 13.806 0 0 0 146.307 64.195 A 10.289 10.289 0 0 0 147.931 65.681 Q 149.445 66.782 151.212 67.195 A 15.085 15.085 0 0 0 151.545 67.269 A 16.316 16.316 0 0 0 154.907 67.608 A 14.129 14.129 0 0 0 158.671 67.104 A 9.333 9.333 0 0 0 158.956 67.02 A 9.729 9.729 0 0 0 162.09 65.359 A 11.36 11.36 0 0 0 163.628 63.894 A 15.123 15.123 0 0 0 164.982 62.078 A 14.39 14.39 0 0 0 165.409 61.366 Q 165.941 60.419 166.406 59.28 A 26.813 26.813 0 0 0 167.231 56.937 A 29.978 29.978 0 0 0 167.488 56.04 Q 168.243 53.243 168.677 49.616 Q 168.961 47.241 169.085 44.43 Z M 50.435 34.955 A 41.788 41.788 0 0 0 50.259 32.932 Q 49.952 30.238 49.437 28.61 A 10.748 10.748 0 0 0 49.387 28.457 A 8.895 8.895 0 0 0 49.059 27.609 Q 48.678 26.767 48.209 26.319 A 2.244 2.244 0 0 0 48.056 26.185 Q 47.275 25.565 46.357 25.565 A 2.28 2.28 0 0 0 44.772 26.203 A 3.225 3.225 0 0 0 44.521 26.46 Q 43.741 27.355 43.213 29.329 Q 42.686 31.303 42.41 34.401 A 61.769 61.769 0 0 0 42.242 36.915 Q 42.135 39.169 42.135 41.951 A 97.125 97.125 0 0 0 42.179 44.986 Q 42.224 46.407 42.313 47.629 A 41.876 41.876 0 0 0 42.479 49.41 A 35.811 35.811 0 0 0 42.721 51.143 Q 43.016 52.915 43.439 54.128 A 10.896 10.896 0 0 0 43.443 54.137 Q 44.032 55.817 44.828 56.564 A 2.8 2.8 0 0 0 44.912 56.639 A 3.287 3.287 0 0 0 45.62 57.114 A 2.494 2.494 0 0 0 46.725 57.373 A 1.954 1.954 0 0 0 48.208 56.657 Q 48.872 55.923 49.337 54.437 A 14.81 14.81 0 0 0 49.662 53.196 A 27.621 27.621 0 0 0 50.064 50.815 Q 50.417 48.074 50.528 44.102 A 140.666 140.666 0 0 0 50.58 40.161 Q 50.58 37.201 50.435 34.955 Z M 159.168 34.955 A 41.788 41.788 0 0 0 158.992 32.932 Q 158.686 30.238 158.17 28.61 A 10.748 10.748 0 0 0 158.12 28.457 A 8.895 8.895 0 0 0 157.792 27.609 Q 157.411 26.767 156.943 26.319 A 2.244 2.244 0 0 0 156.789 26.185 Q 156.009 25.565 155.091 25.565 A 2.28 2.28 0 0 0 153.505 26.203 A 3.225 3.225 0 0 0 153.255 26.46 Q 152.475 27.355 151.947 29.329 Q 151.419 31.303 151.144 34.401 A 61.769 61.769 0 0 0 150.976 36.915 Q 150.868 39.169 150.868 41.951 A 97.125 97.125 0 0 0 150.913 44.986 Q 150.957 46.407 151.046 47.629 A 41.876 41.876 0 0 0 151.212 49.41 A 35.811 35.811 0 0 0 151.454 51.143 Q 151.749 52.915 152.173 54.128 A 10.896 10.896 0 0 0 152.176 54.137 Q 152.765 55.817 153.562 56.564 A 2.8 2.8 0 0 0 153.645 56.639 A 3.287 3.287 0 0 0 154.354 57.114 A 2.494 2.494 0 0 0 155.458 57.373 A 1.954 1.954 0 0 0 156.942 56.657 Q 157.605 55.923 158.07 54.437 A 14.81 14.81 0 0 0 158.396 53.196 A 27.621 27.621 0 0 0 158.797 50.815 Q 159.15 48.074 159.262 44.102 A 140.666 140.666 0 0 0 159.313 40.161 Q 159.313 37.201 159.168 34.955 Z M 208.471 39.564 L 208.471 40.987 L 216.09 39.564 L 216.09 37.82 Q 216.09 33.919 215.493 31.785 Q 214.968 29.907 214.372 28.899 A 4.787 4.787 0 0 0 214.208 28.641 A 4.419 4.419 0 0 0 213.669 27.993 Q 213.052 27.39 212.326 27.264 A 2.821 2.821 0 0 0 210.327 28.353 A 3.494 3.494 0 0 0 210.215 28.503 Q 209.525 29.476 209.14 30.934 A 11.438 11.438 0 0 0 209.044 31.326 A 18.741 18.741 0 0 0 208.729 33.156 A 25.383 25.383 0 0 0 208.563 35.204 A 102.557 102.557 0 0 0 208.471 39.564 Z" vector-effect="non-scaling-stroke"/></g></svg>