<svg width="182.813" height="68.343" viewBox="0 0 182.813 68.343" xmlns="http://www.w3.org/2000/svg"><g id="svgGroup" stroke-linecap="round" fill-rule="evenodd" font-size="9pt" stroke="#243041" stroke-width="13.5" fill="#00000000" style="stroke:#243041;stroke-width:13.5;fill:#00000000"><path d="M 82.434 21.985 L 92.761 21.802 Q 92.394 29.191 92.256 36.42 A 762.794 762.794 0 0 0 92.118 50.947 A 1570.985 1570.985 0 0 0 92.141 59.484 A 322.61 322.61 0 0 0 92.302 68.021 L 83.168 68.251 L 83.168 62.514 Q 81.791 64.763 80.093 65.956 A 16.184 16.184 0 0 1 78.638 66.873 Q 77.865 67.301 77.128 67.579 A 9.436 9.436 0 0 1 76.857 67.677 A 14.924 14.924 0 0 1 75.808 67.997 Q 74.923 68.23 74.218 68.274 A 166.341 166.341 0 0 1 73.837 68.297 Q 73.082 68.343 72.933 68.343 A 9.687 9.687 0 0 1 69.937 67.211 A 8.682 8.682 0 0 1 68.136 65.795 A 13.245 13.245 0 0 1 65.897 62.678 A 16.593 16.593 0 0 1 65.107 60.93 A 24.959 24.959 0 0 1 64.052 57.412 A 32.278 32.278 0 0 1 63.523 54.344 A 60.172 60.172 0 0 1 63.093 48.629 A 68.715 68.715 0 0 1 63.064 46.633 A 93.94 93.94 0 0 1 63.34 39.519 A 173.615 173.615 0 0 1 64.028 32.381 A 195.297 195.297 0 0 1 64.822 26.412 A 177.633 177.633 0 0 1 64.946 25.588 A 301.154 301.154 0 0 1 65.451 22.416 A 244.611 244.611 0 0 1 65.956 19.461 L 75.962 19.645 A 364.521 364.521 0 0 0 75.543 22.467 A 459.415 459.415 0 0 0 75.113 25.52 A 197.411 197.411 0 0 0 74.333 31.991 A 159.198 159.198 0 0 0 73.782 38.624 Q 73.575 41.951 73.575 44.935 A 58.408 58.408 0 0 0 73.66 48.155 A 47.415 47.415 0 0 0 73.805 50.075 Q 74.002 52.126 74.403 53.72 A 16.48 16.48 0 0 0 74.539 54.229 Q 75.044 55.996 75.847 56.983 A 2.822 2.822 0 0 0 76.564 57.622 A 2.411 2.411 0 0 0 77.844 57.97 Q 79.257 57.97 80.219 56.425 A 6.048 6.048 0 0 0 80.414 56.088 A 12.216 12.216 0 0 0 81.136 54.439 Q 81.648 53.014 81.998 51.154 A 45.246 45.246 0 0 0 82.479 47.912 A 61.614 61.614 0 0 0 82.778 44.292 Q 82.984 40.482 82.984 36.627 A 164.088 164.088 0 0 0 82.937 32.613 A 141.184 141.184 0 0 0 82.893 31.119 Q 82.807 28.677 82.721 26.714 A 358.926 358.926 0 0 0 82.709 26.438 A 557.447 557.447 0 0 0 82.571 24.131 A 449.242 449.242 0 0 0 82.434 21.985 Z M 171.706 2.157 L 182.813 1.698 L 181.666 67.654 L 172.854 67.654 L 172.854 62.973 A 22.126 22.126 0 0 1 171.888 64.301 Q 171.067 65.342 170.283 66.025 Q 169.412 66.783 168.678 67.257 A 7.641 7.641 0 0 1 168.08 67.608 Q 166.933 68.205 165.969 68.343 A 8.295 8.295 0 0 1 162.628 67.62 A 10.698 10.698 0 0 1 161.333 66.943 A 9.291 9.291 0 0 1 159.417 65.362 Q 158.245 64.117 157.225 62.284 A 22.228 22.228 0 0 1 155.91 59.427 Q 155.334 57.92 154.849 56.132 A 48.012 48.012 0 0 1 154.265 53.724 Q 153.409 49.769 153.191 44.396 A 94.657 94.657 0 0 1 153.117 40.574 A 62.42 62.42 0 0 1 153.306 35.59 Q 153.549 32.564 154.104 29.995 A 37.985 37.985 0 0 1 155.016 26.53 Q 155.552 24.84 156.21 23.421 A 20.275 20.275 0 0 1 156.743 22.353 Q 158.396 19.277 160.553 17.717 A 8.627 8.627 0 0 1 162.615 16.597 A 6.974 6.974 0 0 1 165.051 16.156 A 7.24 7.24 0 0 1 167.065 16.608 A 8.448 8.448 0 0 1 167.529 16.799 A 9.553 9.553 0 0 1 168.425 17.292 Q 168.851 17.556 169.309 17.889 A 18.902 18.902 0 0 1 169.87 18.313 A 8.714 8.714 0 0 1 171.026 19.42 Q 171.52 19.982 171.991 20.679 A 15.939 15.939 0 0 1 172.303 21.159 L 171.706 2.157 Z M 58.062 67.471 L 50.075 67.012 L 50.075 60.815 A 15.1 15.1 0 0 1 48.896 62.636 Q 48.188 63.565 47.401 64.243 A 8.539 8.539 0 0 1 46.954 64.602 Q 45.394 65.772 43.981 66.41 A 10.867 10.867 0 0 1 43.649 66.553 A 11.866 11.866 0 0 1 41.203 67.249 A 10.328 10.328 0 0 1 40.023 67.379 A 8.937 8.937 0 0 1 35.893 66.392 A 10.995 10.995 0 0 1 32.542 63.753 A 12.489 12.489 0 0 1 30.316 59.966 A 12.473 12.473 0 0 1 29.513 55.537 A 12.588 12.588 0 0 1 30.501 50.692 A 14.489 14.489 0 0 1 30.637 50.374 A 10.538 10.538 0 0 1 32.499 47.554 A 14.581 14.581 0 0 1 34.47 45.761 A 258.085 258.085 0 0 1 37.054 43.79 Q 38.074 43.023 39 42.345 A 132.089 132.089 0 0 1 40.758 41.079 Q 42.796 39.638 44.31 38.399 A 38.208 38.208 0 0 0 45.187 37.66 A 18.198 18.198 0 0 0 46.372 36.537 Q 46.919 35.968 47.331 35.418 A 8.599 8.599 0 0 0 47.803 34.722 A 5.867 5.867 0 0 0 48.611 32.272 A 7.368 7.368 0 0 0 48.652 31.486 A 14.601 14.601 0 0 0 48.572 29.904 Q 48.368 28.037 47.643 26.965 A 3.751 3.751 0 0 0 46.839 26.09 A 2.951 2.951 0 0 0 44.98 25.474 Q 43.971 25.474 43.259 26.001 Q 42.548 26.529 42.112 27.378 A 6.916 6.916 0 0 0 41.587 28.755 A 8.11 8.11 0 0 0 41.469 29.26 Q 41.263 30.293 41.263 31.303 A 15.946 15.946 0 0 0 41.28 32.026 A 21.067 21.067 0 0 0 41.332 32.817 A 10.177 10.177 0 0 0 41.48 33.886 A 12.424 12.424 0 0 0 41.63 34.562 L 31.073 34.745 A 29.609 29.609 0 0 1 30.963 33.636 A 25.569 25.569 0 0 1 30.936 33.253 A 21.743 21.743 0 0 1 30.89 31.854 Q 30.89 29.008 31.854 26.231 A 15.296 15.296 0 0 1 34.676 21.274 Q 36.535 19.094 39.197 17.763 A 12.524 12.524 0 0 1 43.127 16.575 A 16.009 16.009 0 0 1 45.302 16.432 A 17.301 17.301 0 0 1 48.083 16.641 Q 49.588 16.887 50.805 17.419 A 8.453 8.453 0 0 1 52.347 18.291 Q 54.94 20.149 56.294 23.179 Q 57.648 26.208 58.039 30.041 A 77.239 77.239 0 0 1 58.429 37.866 A 1527.806 1527.806 0 0 1 58.36 52.37 Q 58.291 59.622 58.062 67.471 Z M 96.983 64.763 L 97.351 54.298 A 16.024 16.024 0 0 0 99.224 55.606 A 13.048 13.048 0 0 0 100.701 56.363 A 25.764 25.764 0 0 0 102.233 56.971 Q 102.962 57.232 103.632 57.414 A 15.432 15.432 0 0 0 103.822 57.465 Q 105.475 57.878 107.035 57.97 A 4.903 4.903 0 0 0 109.032 56.019 A 5.573 5.573 0 0 0 109.736 53.498 A 6.662 6.662 0 0 0 109.743 53.196 A 6.493 6.493 0 0 0 109.547 51.648 A 8.776 8.776 0 0 0 109.124 50.374 A 8.512 8.512 0 0 0 107.99 48.442 A 10.613 10.613 0 0 0 107.219 47.551 A 251.646 251.646 0 0 1 106.187 46.513 Q 105.271 45.586 104.167 44.453 A 32.897 32.897 0 0 1 101.697 41.597 A 38.644 38.644 0 0 1 100.77 40.345 A 24.256 24.256 0 0 1 98.305 35.942 A 27.254 27.254 0 0 1 98.016 35.25 A 15.793 15.793 0 0 1 96.931 30.367 A 18.634 18.634 0 0 1 96.892 29.146 A 20.606 20.606 0 0 1 97.175 25.661 A 16.68 16.68 0 0 1 97.787 23.202 Q 98.682 20.517 100.311 18.589 Q 101.94 16.661 104.212 15.605 A 11.48 11.48 0 0 1 108.522 14.566 A 13.492 13.492 0 0 1 109.192 14.55 A 16.842 16.842 0 0 1 111.712 14.749 A 22.352 22.352 0 0 1 113.966 15.215 A 25.167 25.167 0 0 1 116.787 16.136 A 33.702 33.702 0 0 1 119.428 17.304 L 118.693 27.998 A 11.902 11.902 0 0 0 116.582 26.494 A 10.885 10.885 0 0 0 116.169 26.277 A 20.632 20.632 0 0 0 114.903 25.694 A 15.024 15.024 0 0 0 113.69 25.244 A 14.065 14.065 0 0 0 111.558 24.755 A 12.635 12.635 0 0 0 111.074 24.693 A 4.871 4.871 0 0 0 108.409 26.152 A 6.272 6.272 0 0 0 108.091 26.506 Q 106.852 27.998 106.852 30.339 A 9.137 9.137 0 0 0 107.048 32.278 A 6.983 6.983 0 0 0 107.747 34.171 A 15.092 15.092 0 0 0 109.787 37.02 A 16.862 16.862 0 0 0 109.996 37.247 A 46.981 46.981 0 0 0 112.169 39.415 A 53.545 53.545 0 0 0 112.956 40.138 A 23.635 23.635 0 0 1 115.698 43.079 A 26.3 26.3 0 0 1 115.962 43.42 A 17.753 17.753 0 0 1 117.692 46.205 A 21.17 21.17 0 0 1 118.349 47.643 Q 119.236 49.787 119.4 52.708 A 23.374 23.374 0 0 1 119.428 53.38 A 20.472 20.472 0 0 1 119.237 56.253 Q 119.019 57.79 118.551 59.077 A 10.915 10.915 0 0 1 118.074 60.196 A 14.507 14.507 0 0 1 116.494 62.725 A 11.553 11.553 0 0 1 114.677 64.579 A 12.753 12.753 0 0 1 110.202 66.943 A 18.404 18.404 0 0 1 107.695 67.498 A 14.428 14.428 0 0 1 105.612 67.654 A 17.407 17.407 0 0 1 102.491 67.287 A 16.311 16.311 0 0 1 100.943 66.883 A 20.811 20.811 0 0 1 99.668 66.438 A 8.343 8.343 0 0 1 96.983 64.763 Z M 11.199 67.471 L 0 67.471 A 558.781 558.781 0 0 0 1.079 46.633 A 635.182 635.182 0 0 0 1.423 25.657 A 807.408 807.408 0 0 0 1.331 13.471 A 418.934 418.934 0 0 0 0.964 1.193 A 24.905 24.905 0 0 1 5.898 0.229 Q 8.399 0 10.144 0 Q 11.043 0 12.246 0.145 A 31.426 31.426 0 0 1 13.196 0.275 A 15.122 15.122 0 0 1 15.516 0.826 A 18.743 18.743 0 0 1 16.959 1.354 A 16.87 16.87 0 0 1 19.398 2.609 A 20.933 20.933 0 0 1 20.861 3.603 A 13.18 13.18 0 0 1 23.04 5.66 A 17.122 17.122 0 0 1 24.372 7.458 A 18.142 18.142 0 0 1 25.823 10.218 Q 26.43 11.643 26.896 13.311 Q 27.723 16.261 27.841 20.19 A 44.524 44.524 0 0 1 27.86 21.526 A 29.263 29.263 0 0 1 26.828 29.26 Q 25.795 33.047 23.661 36.26 A 22.99 22.99 0 0 1 18.47 41.774 A 25.854 25.854 0 0 1 18.268 41.928 A 22.127 22.127 0 0 1 13.223 44.751 A 27.239 27.239 0 0 1 10.557 45.669 Q 10.648 51.223 10.809 56.662 A 820.557 820.557 0 0 0 11.199 67.471 Z M 148.665 57.235 L 149.904 65.864 Q 146.011 67.204 142.748 67.704 A 28.696 28.696 0 0 1 142.125 67.792 Q 138.613 68.251 136.364 68.251 A 12.047 12.047 0 0 1 133.813 67.993 A 9.35 9.35 0 0 1 131.453 67.149 Q 129.342 66.048 127.804 64.212 A 16.061 16.061 0 0 1 125.654 60.85 A 18.622 18.622 0 0 1 125.257 59.966 Q 124.247 57.557 123.65 54.895 A 42.532 42.532 0 0 1 122.801 49.501 A 60.149 60.149 0 0 1 122.584 46.204 A 50.217 50.217 0 0 1 122.549 44.338 Q 122.549 38.279 123.513 33.162 A 41.686 41.686 0 0 1 124.523 28.952 Q 125.28 26.417 126.313 24.326 A 19.319 19.319 0 0 1 128.155 21.291 A 14.272 14.272 0 0 1 130.856 18.52 A 9.806 9.806 0 0 1 137.007 16.432 A 9.792 9.792 0 0 1 142.193 17.854 Q 144.534 19.277 146.187 22.215 A 19.289 19.289 0 0 1 147.467 25.032 Q 147.987 26.45 148.391 28.112 A 37.253 37.253 0 0 1 148.734 29.673 Q 149.629 34.194 149.629 40.391 A 91.961 91.961 0 0 1 149.56 43.925 A 64.113 64.113 0 0 1 149.392 46.687 A 72.027 72.027 0 0 1 149.308 47.643 L 133.06 49.8 Q 133.243 51.498 133.633 53.013 A 12.078 12.078 0 0 0 134.159 54.608 A 9.643 9.643 0 0 0 134.689 55.698 A 6.786 6.786 0 0 0 135.418 56.748 A 5.307 5.307 0 0 0 136.272 57.557 A 3.41 3.41 0 0 0 137.824 58.194 A 4.561 4.561 0 0 0 138.521 58.245 A 41.443 41.443 0 0 0 143.479 57.947 A 160.354 160.354 0 0 0 147.325 57.435 A 184.096 184.096 0 0 0 148.665 57.235 Z M 173.129 44.935 Q 173.037 41.813 172.922 38.555 Q 172.808 35.296 172.303 32.611 A 17.824 17.824 0 0 0 171.828 30.66 Q 171.53 29.693 171.139 28.895 A 9.213 9.213 0 0 0 170.765 28.205 A 3.928 3.928 0 0 0 169.955 27.225 Q 169.092 26.489 167.87 26.483 A 4.105 4.105 0 0 0 167.851 26.483 A 3.41 3.41 0 0 0 166.514 26.737 Q 165.69 27.084 165.12 27.906 A 8.06 8.06 0 0 0 164.311 29.408 Q 164.009 30.133 163.789 30.991 A 14.925 14.925 0 0 0 163.651 31.578 A 25.394 25.394 0 0 0 163.232 34.254 A 32.501 32.501 0 0 0 163.077 36.535 Q 162.985 39.243 162.985 41.813 A 100.426 100.426 0 0 0 163.003 43.649 A 116.367 116.367 0 0 0 163.054 45.577 Q 163.123 47.551 163.307 49.501 A 34.143 34.143 0 0 0 163.68 52.283 A 29.637 29.637 0 0 0 163.857 53.196 Q 164.225 54.94 164.775 56.294 A 7.927 7.927 0 0 0 165.265 57.3 Q 165.652 57.965 166.129 58.429 Q 166.933 59.209 168.034 59.209 A 2.93 2.93 0 0 0 170.221 58.254 A 4.01 4.01 0 0 0 170.375 58.084 Q 171.169 57.158 171.73 55.685 A 13.118 13.118 0 0 0 171.958 55.032 Q 172.527 53.265 172.805 50.937 A 31.992 31.992 0 0 0 172.854 50.511 A 49.075 49.075 0 0 0 173.09 47.117 A 60.025 60.025 0 0 0 173.129 44.935 Z M 10.557 36.26 L 10.557 37.866 A 9.52 9.52 0 0 0 12.357 36.998 A 8.195 8.195 0 0 0 13.196 36.397 Q 14.32 35.479 15.169 34.355 Q 16.019 33.23 16.592 31.945 A 21.122 21.122 0 0 0 17.337 30.043 A 18.614 18.614 0 0 0 17.533 29.421 A 23.895 23.895 0 0 0 18.385 25.206 A 28.739 28.739 0 0 0 18.543 23.133 Q 18.543 23.093 18.526 22.319 A 1609.862 1609.862 0 0 0 18.52 22.077 Q 18.497 21.067 18.291 19.53 A 27.412 27.412 0 0 0 18.021 17.912 A 37.579 37.579 0 0 0 17.625 16.133 A 18.884 18.884 0 0 0 16.363 12.576 A 11.922 11.922 0 0 0 14.297 9.524 A 6.838 6.838 0 0 0 11.199 7.619 Q 10.832 14.733 10.694 21.871 A 745.994 745.994 0 0 0 10.557 36.26 Z M 48.49 48.433 A 50.24 50.24 0 0 0 48.515 48.239 Q 48.655 47.29 48.769 46.032 A 65.149 65.149 0 0 0 48.836 45.233 Q 48.974 43.466 49.065 41.263 A 27.969 27.969 0 0 1 48.343 42.215 A 21.282 21.282 0 0 1 47.643 43.053 A 35.524 35.524 0 0 1 46.977 43.787 A 25.955 25.955 0 0 1 46.357 44.43 A 51.399 51.399 0 0 1 45.692 45.084 A 39.164 39.164 0 0 1 45.072 45.669 A 59.53 59.53 0 0 0 43.982 46.593 A 75.779 75.779 0 0 0 42.823 47.62 A 21.725 21.725 0 0 0 40.643 49.892 A 14.784 14.784 0 0 0 39.297 51.798 A 13.152 13.152 0 0 0 38.991 52.347 A 6.164 6.164 0 0 0 38.516 53.506 A 4.649 4.649 0 0 0 38.325 54.803 A 3.626 3.626 0 0 0 39.054 56.98 A 4.598 4.598 0 0 0 39.197 57.167 A 3.095 3.095 0 0 0 39.958 57.855 A 2.578 2.578 0 0 0 41.354 58.245 A 3.764 3.764 0 0 0 42.523 58.051 A 5.148 5.148 0 0 0 43.351 57.694 A 6.901 6.901 0 0 0 44.545 56.878 A 8.913 8.913 0 0 0 45.325 56.134 A 11.287 11.287 0 0 0 46.62 54.438 A 13.165 13.165 0 0 0 47 53.793 A 10.961 10.961 0 0 0 47.951 51.448 A 12.556 12.556 0 0 0 48.102 50.855 Q 48.316 49.784 48.49 48.433 Z M 132.784 40.574 L 132.784 41.997 L 140.403 40.574 L 140.403 38.83 Q 140.403 34.929 139.807 32.794 Q 139.282 30.916 138.685 29.909 A 4.787 4.787 0 0 0 138.521 29.65 A 4.419 4.419 0 0 0 137.983 29.003 Q 137.365 28.4 136.64 28.273 A 2.821 2.821 0 0 0 134.641 29.363 A 3.494 3.494 0 0 0 134.528 29.513 Q 133.839 30.486 133.454 31.944 A 11.438 11.438 0 0 0 133.358 32.335 A 18.741 18.741 0 0 0 133.042 34.166 A 25.383 25.383 0 0 0 132.876 36.214 A 102.557 102.557 0 0 0 132.784 40.574 Z" vector-effect="non-scaling-stroke"/></g></svg>