<svg width="208.5" height="42.82" viewBox="0 0 208.5 42.82" xmlns="http://www.w3.org/2000/svg"><g id="svgGroup" stroke-linecap="round" fill-rule="evenodd" font-size="9pt" stroke="#243041" stroke-width="7" fill="#24304100" style="stroke:#243041;stroke-width:7;fill:#24304100"><path d="M 202.5 10.148 L 208.031 10.289 A 618.431 618.431 0 0 1 208.371 20.473 Q 208.5 25.594 208.5 30.914 Q 208.5 33.355 208.353 35.219 A 30.508 30.508 0 0 1 208.219 36.563 A 12.965 12.965 0 0 1 207.936 38.114 Q 207.628 39.348 207.094 40.231 Q 206.25 41.625 204.68 42.223 A 7.871 7.871 0 0 1 203.375 42.584 Q 202.707 42.713 201.919 42.772 A 18.754 18.754 0 0 1 200.531 42.82 Q 199.219 42.82 197.508 42.703 A 53.357 53.357 0 0 1 195.921 42.569 Q 195.113 42.49 194.221 42.381 A 89.718 89.718 0 0 1 193.617 42.305 L 193.805 37.172 A 239.824 239.824 0 0 0 195.23 37.265 Q 196.1 37.32 196.852 37.359 L 199.078 37.477 A 37.148 37.148 0 0 0 199.83 37.519 Q 200.423 37.547 200.906 37.547 A 4.102 4.102 0 0 0 201.336 37.526 Q 201.548 37.503 201.729 37.457 A 2.174 2.174 0 0 0 201.867 37.418 A 1.253 1.253 0 0 0 202.512 36.949 Q 202.692 36.7 202.803 36.306 A 3.709 3.709 0 0 0 202.875 36 A 5.498 5.498 0 0 0 202.942 35.54 Q 202.967 35.3 202.98 35.022 A 13.086 13.086 0 0 0 202.992 34.43 L 202.992 33.809 A 5.104 5.104 0 0 0 202.982 33.494 Q 202.972 33.329 202.951 33.146 A 8.518 8.518 0 0 0 202.945 33.094 Q 202.57 33.656 202.09 33.984 A 5.445 5.445 0 0 1 201.553 34.309 A 4.4 4.4 0 0 1 201.141 34.5 A 4.192 4.192 0 0 1 200.624 34.67 A 3.382 3.382 0 0 1 200.238 34.746 A 8.374 8.374 0 0 1 199.958 34.779 Q 199.833 34.792 199.724 34.798 A 3.486 3.486 0 0 1 199.523 34.805 Q 198.092 34.805 197.074 34.365 A 4.008 4.008 0 0 1 196.453 34.031 Q 195.281 33.258 194.637 31.922 A 8.938 8.938 0 0 1 194.054 30.324 A 12.102 12.102 0 0 1 193.758 28.793 Q 193.523 27 193.523 24.961 A 113.96 113.96 0 0 0 193.523 24.59 Q 193.521 24.121 193.516 23.866 A 9.501 9.501 0 0 0 193.512 23.731 A 17.52 17.52 0 0 0 193.507 23.621 Q 193.498 23.401 193.488 23.344 Q 193.478 23.284 193.477 23.284 Q 193.48 23.256 193.5 23.051 Q 193.519 22.849 193.554 22.355 A 120.575 120.575 0 0 0 193.57 22.125 A 213.555 213.555 0 0 0 193.597 21.737 Q 193.641 21.082 193.711 19.992 A 217.258 217.258 0 0 0 193.76 19.208 Q 193.826 18.122 193.907 16.652 A 712.284 712.284 0 0 0 193.934 16.16 Q 194.056 13.9 194.231 10.465 A 3420.01 3420.01 0 0 0 194.25 10.102 L 199.664 10.57 A 0.017 0.017 0 0 1 199.678 10.585 Q 199.715 10.684 199.582 11.473 Q 199.465 12.164 199.321 13.294 A 108.787 108.787 0 0 0 199.23 14.027 A 74.968 74.968 0 0 0 199.083 15.361 Q 199.022 15.955 198.962 16.615 A 144.253 144.253 0 0 0 198.844 18 Q 198.656 20.32 198.656 23.156 A 27.254 27.254 0 0 0 198.681 24.351 Q 198.707 24.936 198.759 25.445 A 13.236 13.236 0 0 0 198.832 26.027 A 12.385 12.385 0 0 0 198.975 26.822 Q 199.055 27.192 199.152 27.507 A 5.557 5.557 0 0 0 199.313 27.961 Q 199.526 28.485 199.802 28.809 A 1.736 1.736 0 0 0 200.051 29.051 Q 200.484 29.391 201.023 29.391 A 1.208 1.208 0 0 0 201.855 29.047 Q 202.231 28.704 202.53 28.02 A 5.598 5.598 0 0 0 202.57 27.926 A 5.841 5.841 0 0 0 202.865 26.964 Q 203.1 25.915 203.159 24.364 A 29.045 29.045 0 0 0 203.18 23.25 Q 203.18 23.069 203.171 22.844 A 15.176 15.176 0 0 0 203.168 22.77 A 18.18 18.18 0 0 1 203.162 22.619 Q 203.156 22.446 203.15 22.206 A 81.324 81.324 0 0 1 203.145 21.973 Q 203.133 21.445 203.086 20.602 A 396.721 396.721 0 0 0 203.06 20.145 Q 203.019 19.409 202.957 18.363 A 398.407 398.407 0 0 1 202.892 17.232 Q 202.835 16.217 202.77 14.965 A 625.313 625.313 0 0 0 202.682 13.348 Q 202.603 11.906 202.5 10.148 Z M 45.609 9.563 L 51.023 10.383 Q 50.137 12.623 49.406 14.419 A 271.512 271.512 0 0 1 48.773 15.961 A 363.709 363.709 0 0 1 48.091 17.599 Q 47.553 18.879 47.121 19.875 A 198.994 198.994 0 0 1 46.791 20.632 Q 46.385 21.558 46.081 22.22 A 57.871 57.871 0 0 1 45.984 22.43 A 49.159 49.159 0 0 1 45.772 22.882 Q 45.469 23.52 45.258 23.906 A 58.388 58.388 0 0 0 45.606 24.655 Q 46.011 25.51 46.603 26.708 A 273.999 273.999 0 0 0 47.18 27.867 A 111.359 111.359 0 0 0 47.892 29.265 Q 48.881 31.176 50.24 33.651 A 322.063 322.063 0 0 0 50.695 34.477 L 45.07 34.852 L 41.578 26.461 Q 41.578 27.424 41.588 28.632 A 366.985 366.985 0 0 0 41.59 28.805 A 263.048 263.048 0 0 0 41.625 31.371 A 99.465 99.465 0 0 0 41.654 32.569 A 74.321 74.321 0 0 0 41.695 33.656 Q 41.74 34.649 41.807 35.12 A 4.493 4.493 0 0 0 41.812 35.156 L 40.477 35.156 A 80.367 80.367 0 0 0 39.982 35.158 Q 39.538 35.161 38.988 35.168 A 31.817 31.817 0 0 0 38.065 35.194 A 41.943 41.943 0 0 0 37.055 35.25 A 208.997 208.997 0 0 0 37.359 30.117 A 235.147 235.147 0 0 0 37.454 27.879 Q 37.493 26.826 37.517 25.884 A 140.136 140.136 0 0 0 37.523 25.617 A 158.418 158.418 0 0 0 37.576 23.361 A 132.688 132.688 0 0 0 37.594 21.234 Q 37.57 18.938 37.477 15.938 A 312.298 312.298 0 0 0 37.393 13.849 Q 37.313 11.98 37.195 9.68 A 366.995 366.995 0 0 0 36.989 6.009 Q 36.854 3.803 36.68 1.313 A 182.396 182.396 0 0 0 38.039 1.374 Q 39.955 1.453 41.133 1.453 L 41.801 1.453 A 6.228 6.228 0 0 0 42.009 1.45 Q 42.173 1.444 42.305 1.43 A 4.67 4.67 0 0 0 42.471 1.427 Q 42.619 1.422 42.727 1.406 A 996.677 996.677 0 0 0 42.576 4.802 Q 42.51 6.356 42.456 7.749 A 579.486 579.486 0 0 0 42.422 8.66 Q 42.341 10.844 42.283 12.645 A 573.551 573.551 0 0 0 42.234 14.203 Q 42.164 16.57 42.129 18.164 A 209.625 209.625 0 0 0 42.114 18.92 Q 42.094 19.992 42.094 20.695 A 200.371 200.371 0 0 0 43.922 15.387 A 84.03 84.03 0 0 0 44.999 11.843 A 100.724 100.724 0 0 0 45.609 9.563 Z M 158.813 10.195 L 159.141 28.289 A 599.154 599.154 0 0 1 159.059 30.586 Q 159.006 31.983 158.953 33.176 A 36.313 36.313 0 0 1 158.835 34.931 Q 158.736 35.994 158.578 36.891 A 12.001 12.001 0 0 1 158.303 38.1 Q 158.131 38.704 157.905 39.21 A 6.466 6.466 0 0 1 157.734 39.563 Q 157.172 40.641 156.176 41.297 A 5.593 5.593 0 0 1 155.123 41.832 Q 154.605 42.034 153.994 42.173 A 10.133 10.133 0 0 1 153.645 42.246 Q 152.477 42.469 150.909 42.522 A 30.214 30.214 0 0 1 149.883 42.539 Q 148.781 42.539 147.516 42.457 Q 146.25 42.375 144.797 42.117 L 144.984 36.961 A 269.226 269.226 0 0 0 146.423 37.055 Q 147.298 37.109 148.043 37.148 Q 149.335 37.217 150.215 37.263 A 3756.483 3756.483 0 0 0 150.258 37.266 A 68.16 68.16 0 0 0 151.009 37.312 Q 151.306 37.328 151.575 37.34 A 36.873 36.873 0 0 0 152.086 37.359 A 1.617 1.617 0 0 0 153.424 36.674 Q 153.626 36.411 153.785 36.047 Q 154.353 34.748 154.428 32.462 A 19.965 19.965 0 0 0 154.43 32.414 Q 154.061 33.233 153.612 33.784 A 4.152 4.152 0 0 1 153.48 33.938 A 5.846 5.846 0 0 1 152.956 34.455 A 4.334 4.334 0 0 1 152.402 34.863 Q 151.852 35.203 151.324 35.32 A 5.217 5.217 0 0 1 150.817 35.408 A 3.898 3.898 0 0 1 150.352 35.438 A 4.172 4.172 0 0 1 148.664 35.07 A 5.417 5.417 0 0 1 147.984 34.711 A 4.807 4.807 0 0 1 147.006 33.894 Q 146.604 33.462 146.237 32.895 A 9.805 9.805 0 0 1 145.887 32.309 A 11.545 11.545 0 0 1 145.215 30.842 Q 144.921 30.07 144.673 29.156 A 24.665 24.665 0 0 1 144.375 27.926 A 22.762 22.762 0 0 1 144.018 25.716 Q 143.878 24.502 143.824 23.104 A 48.082 48.082 0 0 1 143.789 21.234 A 32.317 32.317 0 0 1 143.886 18.671 Q 144.01 17.115 144.293 15.797 A 19.784 19.784 0 0 1 144.758 14.016 Q 145.038 13.127 145.383 12.381 A 10.674 10.674 0 0 1 145.641 11.859 Q 146.484 10.266 147.586 9.457 A 4.397 4.397 0 0 1 148.621 8.883 A 3.518 3.518 0 0 1 149.883 8.648 A 3.859 3.859 0 0 1 150.542 8.708 A 5.054 5.054 0 0 1 151.09 8.836 A 3.712 3.712 0 0 1 151.819 9.14 A 4.992 4.992 0 0 1 152.391 9.504 A 5.145 5.145 0 0 1 153.062 10.097 Q 153.36 10.408 153.645 10.793 A 6.177 6.177 0 0 1 154.138 11.588 Q 154.36 12.009 154.555 12.51 A 11.455 11.455 0 0 1 154.688 12.867 L 154.641 9.984 L 158.813 10.195 Z M 73.969 34.758 L 69.891 34.523 L 69.891 31.359 A 7.711 7.711 0 0 1 69.288 32.289 Q 68.826 32.896 68.297 33.293 Q 67.5 33.891 66.779 34.216 A 5.549 5.549 0 0 1 66.609 34.289 Q 65.672 34.664 64.758 34.711 Q 63.633 34.711 62.648 34.207 Q 61.664 33.703 60.938 32.859 Q 60.211 32.016 59.801 30.926 Q 59.391 29.836 59.391 28.664 A 6.428 6.428 0 0 1 59.895 26.19 A 7.398 7.398 0 0 1 59.965 26.027 A 5.381 5.381 0 0 1 60.915 24.588 A 7.446 7.446 0 0 1 61.922 23.672 A 131.786 131.786 0 0 1 63.241 22.666 Q 63.762 22.274 64.235 21.928 A 67.45 67.45 0 0 1 65.133 21.281 Q 66.492 20.32 67.395 19.535 A 9.293 9.293 0 0 0 68 18.962 Q 68.279 18.671 68.489 18.391 A 4.391 4.391 0 0 0 68.73 18.035 A 2.996 2.996 0 0 0 69.143 16.784 A 3.762 3.762 0 0 0 69.164 16.383 A 7.456 7.456 0 0 0 69.123 15.575 Q 69.019 14.622 68.648 14.074 A 1.915 1.915 0 0 0 68.238 13.627 A 1.507 1.507 0 0 0 67.289 13.313 A 1.643 1.643 0 0 0 66.846 13.37 A 1.32 1.32 0 0 0 66.41 13.582 A 1.963 1.963 0 0 0 65.875 14.192 A 2.313 2.313 0 0 0 65.824 14.285 A 3.531 3.531 0 0 0 65.556 14.988 A 4.141 4.141 0 0 0 65.496 15.246 A 5.308 5.308 0 0 0 65.391 16.289 A 8.143 8.143 0 0 0 65.399 16.658 A 10.758 10.758 0 0 0 65.426 17.063 A 5.197 5.197 0 0 0 65.502 17.608 A 6.344 6.344 0 0 0 65.578 17.953 L 60.188 18.047 A 15.12 15.12 0 0 1 60.131 17.481 A 13.057 13.057 0 0 1 60.117 17.285 A 11.103 11.103 0 0 1 60.094 16.57 A 8.701 8.701 0 0 1 60.586 13.699 A 7.811 7.811 0 0 1 62.027 11.168 Q 62.977 10.055 64.336 9.375 A 6.395 6.395 0 0 1 66.342 8.769 A 8.175 8.175 0 0 1 67.453 8.695 A 8.834 8.834 0 0 1 68.873 8.802 Q 69.642 8.928 70.263 9.2 A 4.316 4.316 0 0 1 71.051 9.645 Q 72.375 10.594 73.066 12.141 A 10.445 10.445 0 0 1 73.738 14.234 A 13.188 13.188 0 0 1 73.957 15.645 A 39.441 39.441 0 0 1 74.156 19.641 A 780.152 780.152 0 0 1 74.121 27.047 A 379.726 379.726 0 0 1 74.022 32.773 A 427.361 427.361 0 0 1 73.969 34.758 Z M 113.438 34.758 L 109.359 34.523 L 109.359 31.359 A 7.711 7.711 0 0 1 108.757 32.289 Q 108.294 32.896 107.766 33.293 Q 106.969 33.891 106.247 34.216 A 5.549 5.549 0 0 1 106.078 34.289 Q 105.141 34.664 104.227 34.711 Q 103.102 34.711 102.117 34.207 Q 101.133 33.703 100.406 32.859 Q 99.68 32.016 99.27 30.926 Q 98.859 29.836 98.859 28.664 A 6.428 6.428 0 0 1 99.364 26.19 A 7.398 7.398 0 0 1 99.434 26.027 A 5.381 5.381 0 0 1 100.384 24.588 A 7.446 7.446 0 0 1 101.391 23.672 A 131.786 131.786 0 0 1 102.71 22.666 Q 103.231 22.274 103.704 21.928 A 67.45 67.45 0 0 1 104.602 21.281 Q 105.961 20.32 106.863 19.535 A 9.293 9.293 0 0 0 107.468 18.962 Q 107.748 18.671 107.958 18.391 A 4.391 4.391 0 0 0 108.199 18.035 A 2.996 2.996 0 0 0 108.612 16.784 A 3.762 3.762 0 0 0 108.633 16.383 A 7.456 7.456 0 0 0 108.592 15.575 Q 108.488 14.622 108.117 14.074 A 1.915 1.915 0 0 0 107.707 13.627 A 1.507 1.507 0 0 0 106.758 13.313 A 1.643 1.643 0 0 0 106.315 13.37 A 1.32 1.32 0 0 0 105.879 13.582 A 1.963 1.963 0 0 0 105.343 14.192 A 2.313 2.313 0 0 0 105.293 14.285 A 3.531 3.531 0 0 0 105.025 14.988 A 4.141 4.141 0 0 0 104.965 15.246 A 5.308 5.308 0 0 0 104.859 16.289 A 8.143 8.143 0 0 0 104.868 16.658 A 10.758 10.758 0 0 0 104.895 17.063 A 5.197 5.197 0 0 0 104.971 17.608 A 6.344 6.344 0 0 0 105.047 17.953 L 99.656 18.047 A 15.12 15.12 0 0 1 99.6 17.481 A 13.057 13.057 0 0 1 99.586 17.285 A 11.103 11.103 0 0 1 99.562 16.57 A 8.701 8.701 0 0 1 100.055 13.699 A 7.811 7.811 0 0 1 101.496 11.168 Q 102.445 10.055 103.805 9.375 A 6.395 6.395 0 0 1 105.811 8.769 A 8.175 8.175 0 0 1 106.922 8.695 A 8.834 8.834 0 0 1 108.342 8.802 Q 109.11 8.928 109.732 9.2 A 4.316 4.316 0 0 1 110.52 9.645 Q 111.844 10.594 112.535 12.141 A 10.445 10.445 0 0 1 113.207 14.234 A 13.188 13.188 0 0 1 113.426 15.645 A 39.441 39.441 0 0 1 113.625 19.641 A 780.152 780.152 0 0 1 113.59 27.047 A 379.726 379.726 0 0 1 113.491 32.773 A 427.361 427.361 0 0 1 113.438 34.758 Z M 97.313 29.344 L 98.18 33.984 A 10.618 10.618 0 0 1 96.85 34.497 A 9.277 9.277 0 0 1 96.375 34.629 Q 95.61 34.82 94.983 34.934 A 14.729 14.729 0 0 1 94.781 34.969 Q 93.961 35.086 93.188 35.109 A 5.38 5.38 0 0 1 92.205 35.014 A 7.183 7.183 0 0 1 91.371 34.805 Q 90.398 34.5 89.414 33.762 A 7.554 7.554 0 0 1 88.477 32.92 Q 88.052 32.473 87.641 31.919 A 12.963 12.963 0 0 1 87.516 31.746 A 10.623 10.623 0 0 1 86.756 30.503 Q 86.41 29.843 86.1 29.066 A 18.946 18.946 0 0 1 85.898 28.535 Q 85.195 26.602 84.773 23.906 A 32.52 32.52 0 0 1 84.485 21.377 Q 84.385 20.076 84.36 18.616 A 57.825 57.825 0 0 1 84.352 17.625 A 43.146 43.146 0 0 1 84.445 14.712 Q 84.537 13.346 84.722 12.148 A 23.696 23.696 0 0 1 84.855 11.367 Q 85.297 9.026 85.972 7.27 A 15.698 15.698 0 0 1 86.168 6.785 A 15.806 15.806 0 0 1 86.902 5.269 Q 87.316 4.523 87.776 3.921 A 8.919 8.919 0 0 1 87.996 3.645 A 12.297 12.297 0 0 1 88.895 2.667 Q 89.404 2.172 89.922 1.802 A 7.431 7.431 0 0 1 90.07 1.699 Q 91.125 0.984 92.121 0.715 Q 93.117 0.445 93.844 0.445 Q 94.523 0.469 95.18 0.586 Q 95.742 0.703 96.363 0.938 Q 96.984 1.172 97.453 1.594 L 96.984 6.305 A 7.673 7.673 0 0 0 96.368 6.028 Q 96.05 5.903 95.754 5.824 A 4.679 4.679 0 0 0 95.126 5.701 A 3.782 3.782 0 0 0 94.664 5.672 A 3.12 3.12 0 0 0 93.521 5.878 A 2.919 2.919 0 0 0 92.918 6.199 A 4.615 4.615 0 0 0 91.866 7.218 A 5.544 5.544 0 0 0 91.605 7.594 Q 91.055 8.461 90.668 9.563 Q 90.281 10.664 90.047 11.813 A 27.185 27.185 0 0 0 89.59 14.695 Q 89.426 16.23 89.391 17.953 A 36.246 36.246 0 0 0 89.575 20.996 Q 89.736 22.526 90.03 23.869 A 21.935 21.935 0 0 0 90.07 24.047 Q 90.328 25.195 90.715 26.285 A 9.659 9.659 0 0 0 91.267 27.556 A 8.062 8.062 0 0 0 91.664 28.231 Q 92.227 29.086 92.988 29.602 A 3.009 3.009 0 0 0 94.479 30.107 A 3.749 3.749 0 0 0 94.758 30.117 A 3.882 3.882 0 0 0 95.691 29.994 Q 96.112 29.89 96.572 29.697 A 8.892 8.892 0 0 0 97.312 29.344 Z M 183.492 25.359 L 183.82 34.57 L 178.406 34.945 Q 178.406 29.387 178.304 24.906 A 316.764 316.764 0 0 0 178.301 24.762 A 817.265 817.265 0 0 0 178.22 21.547 Q 178.186 20.285 178.15 19.152 A 414.481 414.481 0 0 0 178.078 17.016 Q 177.957 13.793 177.819 11.176 A 263.462 263.462 0 0 0 177.773 10.336 L 182.391 10.031 L 182.625 12.68 A 9.929 9.929 0 0 1 183.146 11.583 Q 183.448 11.041 183.791 10.616 A 5.308 5.308 0 0 1 184.066 10.301 Q 184.809 9.516 185.553 9.086 A 4.621 4.621 0 0 1 185.73 8.988 A 6.835 6.835 0 0 1 186.383 8.688 Q 186.843 8.507 187.254 8.438 Q 187.814 8.343 188.151 8.325 A 2.746 2.746 0 0 1 188.297 8.32 Q 189.492 8.32 190.242 9.082 A 4.725 4.725 0 0 1 191.043 10.187 A 6.217 6.217 0 0 1 191.414 11.039 Q 191.836 12.234 191.988 13.664 A 26.565 26.565 0 0 1 192.137 16.01 A 23.822 23.822 0 0 1 192.141 16.43 A 34.199 34.199 0 0 1 192.113 17.83 A 29.26 29.26 0 0 1 192.082 18.434 A 2687.969 2687.969 0 0 1 192.03 19.28 Q 192.005 19.678 191.983 20.032 A 1551.65 1551.65 0 0 1 191.977 20.133 A 36.261 36.261 0 0 0 190.837 20.33 A 41.904 41.904 0 0 0 190.406 20.414 Q 189.703 20.555 188.813 20.789 Q 187.922 21.023 187.031 21.328 A 26.654 26.654 0 0 0 187.186 20.49 Q 187.296 19.827 187.348 19.277 A 20.099 20.099 0 0 0 187.409 18.437 A 15.012 15.012 0 0 0 187.43 17.672 Q 187.43 16.483 187.233 15.78 A 3.148 3.148 0 0 0 187.207 15.691 A 5.528 5.528 0 0 0 187.062 15.28 Q 186.908 14.896 186.731 14.66 A 1.547 1.547 0 0 0 186.703 14.625 Q 186.43 14.283 186.168 14.207 A 0.584 0.584 0 0 0 186.152 14.203 Q 185.92 14.143 185.818 14.134 A 0.36 0.36 0 0 0 185.789 14.133 Q 185.039 14.133 184.57 14.754 Q 184.102 15.375 183.844 16.395 A 11.372 11.372 0 0 0 183.628 17.478 Q 183.545 18.029 183.498 18.644 A 18.573 18.573 0 0 0 183.492 18.727 Q 183.398 20.039 183.398 21.422 A 82.708 82.708 0 0 0 183.422 23.391 A 82.848 82.848 0 0 0 183.492 25.359 Z M 118.594 2.977 L 124.594 2.93 A 184.83 184.83 0 0 0 124.283 6.397 A 168.943 168.943 0 0 0 124.266 6.621 A 284.941 284.941 0 0 0 124.008 10.195 A 140.545 140.545 0 0 1 125.777 10.113 Q 126.656 10.078 127.57 9.984 L 127.406 14.742 Q 126.516 14.695 125.59 14.695 L 123.773 14.695 Q 123.586 18.07 123.504 21.293 A 255.598 255.598 0 0 0 123.422 27.797 Q 123.422 29.484 123.457 31.184 A 542.306 542.306 0 0 0 123.539 34.617 L 118.383 34.711 Q 118.547 29.672 118.664 24.738 A 418.985 418.985 0 0 0 118.781 14.789 A 127.772 127.772 0 0 1 116.977 14.871 Q 116.063 14.906 115.172 14.977 L 115.359 9.844 Q 116.18 9.961 117.047 10.031 Q 117.914 10.102 118.734 10.148 Q 118.734 8.32 118.699 6.563 A 194.552 194.552 0 0 0 118.594 2.977 Z M 5.719 34.758 L 0 34.758 A 285.335 285.335 0 0 0 0.551 24.117 A 324.348 324.348 0 0 0 0.727 13.406 Q 0.727 10.289 0.68 7.184 Q 0.633 4.078 0.492 0.914 A 12.717 12.717 0 0 1 3.012 0.422 A 33.799 33.799 0 0 1 3.915 0.351 Q 4.269 0.328 4.585 0.316 A 16.478 16.478 0 0 1 5.18 0.305 A 7.313 7.313 0 0 1 5.694 0.324 Q 5.955 0.343 6.253 0.379 A 16.047 16.047 0 0 1 6.738 0.445 A 7.722 7.722 0 0 1 7.923 0.726 A 9.571 9.571 0 0 1 8.66 0.996 Q 9.656 1.406 10.652 2.145 A 6.73 6.73 0 0 1 11.765 3.195 A 8.743 8.743 0 0 1 12.445 4.113 Q 13.218 5.307 13.704 6.996 A 15.141 15.141 0 0 1 13.734 7.102 A 12.266 12.266 0 0 1 14.071 8.77 Q 14.187 9.632 14.217 10.615 A 22.736 22.736 0 0 1 14.227 11.297 A 14.943 14.943 0 0 1 13.699 15.246 Q 13.172 17.18 12.082 18.82 Q 10.992 20.461 9.328 21.715 A 11.299 11.299 0 0 1 6.752 23.157 A 13.909 13.909 0 0 1 5.391 23.625 Q 5.438 26.461 5.52 29.238 A 419.01 419.01 0 0 0 5.719 34.758 Z M 141.516 29.531 L 142.148 33.938 Q 139.969 34.688 138.176 34.922 Q 136.999 35.076 136.1 35.129 A 14.832 14.832 0 0 1 135.234 35.156 A 6.151 6.151 0 0 1 133.932 35.024 A 4.775 4.775 0 0 1 132.727 34.594 Q 131.648 34.031 130.863 33.094 A 8.202 8.202 0 0 1 129.765 31.377 A 9.509 9.509 0 0 1 129.563 30.926 A 15.403 15.403 0 0 1 128.742 28.336 Q 128.438 26.977 128.309 25.582 A 30.715 30.715 0 0 1 128.198 23.898 A 25.643 25.643 0 0 1 128.18 22.945 A 34.132 34.132 0 0 1 128.335 19.617 A 27.186 27.186 0 0 1 128.672 17.238 A 21.287 21.287 0 0 1 129.188 15.089 Q 129.526 13.956 129.972 12.997 A 12.808 12.808 0 0 1 130.102 12.727 A 9.865 9.865 0 0 1 131.043 11.177 A 7.288 7.288 0 0 1 132.422 9.762 Q 133.805 8.695 135.563 8.695 A 5 5 0 0 1 138.211 9.422 A 5.185 5.185 0 0 1 139.476 10.521 A 7.239 7.239 0 0 1 140.25 11.648 A 9.85 9.85 0 0 1 140.904 13.087 Q 141.169 13.811 141.376 14.66 A 19.023 19.023 0 0 1 141.551 15.457 A 22.071 22.071 0 0 1 141.859 17.599 Q 141.968 18.72 141.997 19.991 A 41.178 41.178 0 0 1 142.008 20.93 Q 142.008 21.82 141.973 22.734 A 32.739 32.739 0 0 1 141.887 24.145 A 36.781 36.781 0 0 1 141.844 24.633 L 133.547 25.734 Q 133.641 26.602 133.84 27.375 A 6.167 6.167 0 0 0 134.108 28.19 A 4.924 4.924 0 0 0 134.379 28.746 A 3.465 3.465 0 0 0 134.751 29.282 A 2.71 2.71 0 0 0 135.187 29.695 A 1.741 1.741 0 0 0 135.98 30.021 A 2.329 2.329 0 0 0 136.336 30.047 A 21.162 21.162 0 0 0 138.867 29.895 Q 140.133 29.742 141.516 29.531 Z M 35.461 9.844 L 35.086 15.328 Q 34.758 14.906 34.289 14.672 A 4.703 4.703 0 0 0 33.557 14.377 A 4.192 4.192 0 0 0 33.352 14.32 A 6.501 6.501 0 0 0 32.9 14.224 A 4.894 4.894 0 0 0 32.484 14.168 A 17.597 17.597 0 0 0 32.3 14.153 Q 32.045 14.133 31.922 14.133 A 1.55 1.55 0 0 0 30.935 14.49 A 2.241 2.241 0 0 0 30.668 14.742 A 3.576 3.576 0 0 0 30.248 15.322 Q 30.07 15.622 29.915 15.991 A 7.732 7.732 0 0 0 29.73 16.477 Q 29.414 17.398 29.223 18.643 A 19.766 19.766 0 0 0 29.145 19.207 A 25.129 25.129 0 0 0 28.995 20.909 A 34.34 34.34 0 0 0 28.945 22.805 A 23.775 23.775 0 0 0 29.021 24.751 A 18.127 18.127 0 0 0 29.215 26.309 Q 29.484 27.891 30.164 29.027 A 5.155 5.155 0 0 0 31.992 30.844 Q 33.141 31.523 34.898 31.641 L 34.758 35.672 A 13.935 13.935 0 0 1 33.973 35.742 A 12.591 12.591 0 0 1 33.211 35.766 A 13.558 13.558 0 0 1 31.608 35.676 Q 30.787 35.578 30.082 35.373 A 7.629 7.629 0 0 1 29.73 35.262 A 7.861 7.861 0 0 1 28.145 34.52 A 6.624 6.624 0 0 1 27.234 33.844 A 7.371 7.371 0 0 1 25.559 31.676 A 12.527 12.527 0 0 1 24.689 29.484 A 14.362 14.362 0 0 1 24.539 28.934 A 18.222 18.222 0 0 1 24.115 26.596 A 20.959 20.959 0 0 1 24.035 25.77 A 44.768 44.768 0 0 1 23.906 22.336 A 59.555 59.555 0 0 1 23.921 21.05 A 80.415 80.415 0 0 1 23.965 19.629 Q 24.023 18.141 24.246 16.629 Q 24.469 15.117 24.926 13.688 A 9.499 9.499 0 0 1 25.715 11.871 A 8.347 8.347 0 0 1 26.18 11.145 Q 26.977 10.031 28.184 9.363 Q 29.391 8.695 31.102 8.695 A 8.827 8.827 0 0 1 32.555 8.813 A 11.617 11.617 0 0 1 33.309 8.963 A 9.23 9.23 0 0 1 33.844 9.106 Q 34.347 9.257 34.73 9.425 A 5.077 5.077 0 0 1 34.852 9.481 Q 35.217 9.653 35.407 9.799 A 1.136 1.136 0 0 1 35.461 9.844 Z M 175.662 23.508 A 53.73 53.73 0 0 0 175.711 21.141 A 52.784 52.784 0 0 0 175.695 19.843 Q 175.67 18.797 175.601 17.869 A 28.03 28.03 0 0 0 175.43 16.195 Q 175.267 14.989 175.034 13.991 A 14.806 14.806 0 0 0 174.656 12.645 A 12.592 12.592 0 0 0 174.496 12.195 Q 174.285 11.638 174.043 11.171 A 6.59 6.59 0 0 0 173.484 10.266 A 6.964 6.964 0 0 0 172.869 9.542 A 5.172 5.172 0 0 0 172.02 8.836 Q 171.234 8.32 170.355 8.145 A 8.885 8.885 0 0 0 168.609 7.969 A 6.233 6.233 0 0 0 165.961 8.566 Q 165.155 8.94 164.459 9.689 A 7.486 7.486 0 0 0 163.664 10.723 A 8.743 8.743 0 0 0 163.108 11.731 Q 162.475 13.069 162.035 14.977 Q 161.628 16.745 161.487 19.17 A 47.3 47.3 0 0 0 161.414 21.891 Q 161.414 24.703 161.66 26.789 Q 161.801 27.979 162.006 28.978 A 16.779 16.779 0 0 0 162.352 30.375 A 13.254 13.254 0 0 0 162.497 30.836 Q 162.69 31.408 162.916 31.892 A 6.993 6.993 0 0 0 163.441 32.836 A 7.05 7.05 0 0 0 164.03 33.601 A 5.254 5.254 0 0 0 164.859 34.359 A 4.61 4.61 0 0 0 166.535 35.133 A 7.703 7.703 0 0 0 166.705 35.171 A 8.332 8.332 0 0 0 168.422 35.344 A 7.215 7.215 0 0 0 170.344 35.086 Q 171.281 34.828 172.09 34.195 Q 172.898 33.563 173.566 32.52 Q 174.234 31.477 174.715 29.895 Q 175.195 28.313 175.453 26.156 Q 175.598 24.943 175.662 23.508 Z M 21.844 10.242 A 57.12 57.12 0 0 0 21.686 11.927 A 69.527 69.527 0 0 0 21.609 13.008 A 159.38 159.38 0 0 0 21.463 15.673 A 176.233 176.233 0 0 0 21.445 16.066 Q 21.375 17.648 21.352 19.277 A 222.421 222.421 0 0 0 21.328 22.477 A 175.421 175.421 0 0 0 21.348 25.146 A 157.137 157.137 0 0 0 21.363 26.004 A 176.377 176.377 0 0 0 21.404 27.636 A 136.302 136.302 0 0 0 21.457 29.133 Q 21.516 30.563 21.598 31.664 A 28.716 28.716 0 0 0 21.641 32.184 Q 21.693 32.746 21.757 33.146 A 7.346 7.346 0 0 0 21.797 33.375 Q 20.859 33.375 19.852 33.422 A 149.398 149.398 0 0 0 18.947 33.474 Q 18.469 33.502 17.94 33.537 A 231.775 231.775 0 0 0 17.906 33.539 A 33.547 33.547 0 0 0 15.75 33.75 Q 16.148 29.531 16.289 26.027 A 189.555 189.555 0 0 0 16.39 22.9 Q 16.425 21.427 16.429 20.108 A 113.503 113.503 0 0 0 16.43 19.734 A 120.586 120.586 0 0 0 16.418 18.025 Q 16.409 17.348 16.391 16.73 A 68.554 68.554 0 0 0 16.348 15.551 Q 16.291 14.318 16.229 13.346 A 71.24 71.24 0 0 0 16.172 12.516 A 48.554 48.554 0 0 0 16.095 11.485 Q 16.025 10.676 15.938 10.031 A 34.427 34.427 0 0 0 17.194 10.166 A 25.791 25.791 0 0 0 18.34 10.242 Q 19.089 10.274 19.7 10.285 A 32.017 32.017 0 0 0 20.227 10.289 L 20.906 10.289 A 6.625 6.625 0 0 0 21.122 10.286 Q 21.29 10.28 21.422 10.266 A 4.67 4.67 0 0 0 21.588 10.263 Q 21.736 10.258 21.844 10.242 Z M 154.008 23.484 A 110.113 110.113 0 0 0 154.006 22.902 Q 154.003 22.384 153.996 21.762 A 47.274 47.274 0 0 0 153.94 19.965 A 52.446 52.446 0 0 0 153.926 19.699 A 20.502 20.502 0 0 0 153.703 17.602 Q 153.539 16.57 153.246 15.75 A 4.689 4.689 0 0 0 152.962 15.104 Q 152.778 14.762 152.55 14.499 A 2.802 2.802 0 0 0 152.484 14.426 A 1.526 1.526 0 0 0 151.378 13.923 A 1.918 1.918 0 0 0 151.313 13.922 A 1.684 1.684 0 0 0 150.607 14.065 Q 150.252 14.227 149.991 14.57 A 2.108 2.108 0 0 0 149.918 14.672 Q 149.414 15.422 149.168 16.594 A 13.494 13.494 0 0 0 148.954 17.986 A 17.204 17.204 0 0 0 148.875 19.172 A 82.752 82.752 0 0 0 148.829 21.561 A 74.491 74.491 0 0 0 148.828 21.891 A 51.281 51.281 0 0 0 148.837 22.828 A 59.424 59.424 0 0 0 148.863 23.813 A 34.049 34.049 0 0 0 148.992 25.816 A 17.435 17.435 0 0 0 149.183 27.237 A 15.134 15.134 0 0 0 149.273 27.703 A 10.779 10.779 0 0 0 149.484 28.544 A 7.998 7.998 0 0 0 149.742 29.285 Q 149.986 29.885 150.327 30.265 A 2.27 2.27 0 0 0 150.434 30.375 A 1.349 1.349 0 0 0 151.406 30.773 Q 152.109 30.773 152.602 30.199 A 3.44 3.44 0 0 0 152.999 29.618 Q 153.232 29.194 153.41 28.641 A 9.462 9.462 0 0 0 153.668 27.643 Q 153.773 27.13 153.843 26.55 A 16.337 16.337 0 0 0 153.867 26.332 Q 154.008 25.008 154.008 23.484 Z M 170.672 21.328 A 50.931 50.931 0 0 0 170.652 19.877 Q 170.634 19.23 170.598 18.67 A 21.338 21.338 0 0 0 170.508 17.637 A 18.839 18.839 0 0 0 170.394 16.794 Q 170.256 15.932 170.063 15.352 Q 169.809 14.592 169.461 14.26 A 1.146 1.146 0 0 0 169.383 14.191 A 1.484 1.484 0 0 0 168.953 13.949 A 1.306 1.306 0 0 0 168.516 13.875 A 1.164 1.164 0 0 0 167.706 14.2 A 1.647 1.647 0 0 0 167.578 14.332 Q 167.202 14.764 166.94 15.687 A 7.84 7.84 0 0 0 166.91 15.797 A 10.339 10.339 0 0 0 166.733 16.595 Q 166.662 16.984 166.603 17.432 A 23.634 23.634 0 0 0 166.5 18.387 A 31.541 31.541 0 0 0 166.414 19.671 Q 166.387 20.246 166.373 20.889 A 63.492 63.492 0 0 0 166.359 22.242 Q 166.359 24.539 166.535 26.051 Q 166.71 27.558 167.026 28.46 A 5.011 5.011 0 0 0 167.027 28.465 Q 167.328 29.323 167.735 29.704 A 1.429 1.429 0 0 0 167.777 29.742 A 1.678 1.678 0 0 0 168.139 29.985 A 1.273 1.273 0 0 0 168.703 30.117 A 0.998 0.998 0 0 0 169.461 29.752 Q 169.799 29.377 170.037 28.618 A 7.563 7.563 0 0 0 170.203 27.984 A 14.104 14.104 0 0 0 170.408 26.769 Q 170.672 24.721 170.672 21.328 Z M 5.391 18.82 L 5.391 19.641 A 4.861 4.861 0 0 0 6.31 19.197 A 4.185 4.185 0 0 0 6.738 18.891 Q 7.313 18.422 7.746 17.848 Q 8.18 17.273 8.473 16.617 A 10.786 10.786 0 0 0 8.853 15.646 A 9.505 9.505 0 0 0 8.953 15.328 Q 9.398 13.852 9.469 12.117 A 1.066 1.066 0 0 0 9.469 12.104 Q 9.467 12.04 9.46 11.702 A 819.709 819.709 0 0 0 9.457 11.578 Q 9.445 11.063 9.34 10.277 A 13.998 13.998 0 0 0 9.202 9.451 A 19.19 19.19 0 0 0 9 8.543 A 9.643 9.643 0 0 0 8.355 6.727 A 6.088 6.088 0 0 0 7.301 5.168 Q 6.656 4.477 5.719 4.195 A 225.602 225.602 0 0 0 5.461 11.473 A 380.934 380.934 0 0 0 5.391 18.82 Z M 23.139 4.371 A 3.956 3.956 0 0 0 23.25 3.422 A 4.39 4.39 0 0 0 23.249 3.329 A 3.867 3.867 0 0 0 23.027 2.098 A 2.986 2.986 0 0 0 22.348 1.008 A 2.834 2.834 0 0 0 21.826 0.589 A 3.597 3.597 0 0 0 21.176 0.27 A 3.464 3.464 0 0 0 20.957 0.195 Q 20.311 0 19.453 0 Q 18.445 0 17.719 0.27 A 3.768 3.768 0 0 0 17.212 0.5 A 2.868 2.868 0 0 0 16.535 1.008 A 2.859 2.859 0 0 0 15.867 2.098 A 3.829 3.829 0 0 0 15.795 2.336 A 4.17 4.17 0 0 0 15.656 3.422 A 5.011 5.011 0 0 0 15.67 3.8 A 4.202 4.202 0 0 0 15.855 4.77 Q 16.055 5.391 16.512 5.848 A 2.783 2.783 0 0 0 17.034 6.256 A 3.574 3.574 0 0 0 17.684 6.563 A 3.603 3.603 0 0 0 18.037 6.669 Q 18.348 6.746 18.71 6.784 A 7.181 7.181 0 0 0 19.453 6.82 A 6.993 6.993 0 0 0 19.572 6.819 Q 20.459 6.804 21.129 6.563 A 3.833 3.833 0 0 0 21.591 6.362 A 3 3 0 0 0 22.312 5.848 A 2.933 2.933 0 0 0 23.016 4.77 A 3.497 3.497 0 0 0 23.139 4.371 Z M 69.081 25.036 A 25.62 25.62 0 0 0 69.094 24.938 Q 69.188 24.305 69.258 23.402 A 47.936 47.936 0 0 0 69.321 22.46 Q 69.351 21.946 69.375 21.375 A 14.283 14.283 0 0 1 69.006 21.861 A 10.868 10.868 0 0 1 68.648 22.289 A 18.14 18.14 0 0 1 68.309 22.664 A 13.254 13.254 0 0 1 67.992 22.992 A 26.246 26.246 0 0 1 67.652 23.326 A 19.999 19.999 0 0 1 67.336 23.625 A 30.398 30.398 0 0 0 66.779 24.097 A 38.696 38.696 0 0 0 66.187 24.621 Q 65.578 25.172 65.074 25.781 A 7.549 7.549 0 0 0 64.387 26.755 A 6.716 6.716 0 0 0 64.23 27.035 Q 63.891 27.68 63.891 28.289 A 1.851 1.851 0 0 0 64.263 29.401 A 2.348 2.348 0 0 0 64.336 29.496 A 1.581 1.581 0 0 0 64.724 29.848 A 1.317 1.317 0 0 0 65.437 30.047 A 1.922 1.922 0 0 0 66.034 29.948 A 2.629 2.629 0 0 0 66.457 29.766 A 3.524 3.524 0 0 0 67.067 29.349 A 4.551 4.551 0 0 0 67.465 28.969 A 5.764 5.764 0 0 0 68.126 28.103 A 6.722 6.722 0 0 0 68.32 27.773 A 5.597 5.597 0 0 0 68.806 26.576 A 6.412 6.412 0 0 0 68.883 26.273 Q 68.992 25.726 69.081 25.036 Z M 108.55 25.036 A 25.62 25.62 0 0 0 108.563 24.938 Q 108.656 24.305 108.727 23.402 A 47.936 47.936 0 0 0 108.79 22.46 Q 108.82 21.946 108.844 21.375 A 14.283 14.283 0 0 1 108.475 21.861 A 10.868 10.868 0 0 1 108.117 22.289 A 18.14 18.14 0 0 1 107.777 22.664 A 13.254 13.254 0 0 1 107.461 22.992 A 26.246 26.246 0 0 1 107.121 23.326 A 19.999 19.999 0 0 1 106.805 23.625 A 30.398 30.398 0 0 0 106.248 24.097 A 38.696 38.696 0 0 0 105.656 24.621 Q 105.047 25.172 104.543 25.781 A 7.549 7.549 0 0 0 103.856 26.755 A 6.716 6.716 0 0 0 103.699 27.035 Q 103.359 27.68 103.359 28.289 A 1.851 1.851 0 0 0 103.731 29.401 A 2.348 2.348 0 0 0 103.805 29.496 A 1.581 1.581 0 0 0 104.193 29.848 A 1.317 1.317 0 0 0 104.906 30.047 A 1.922 1.922 0 0 0 105.503 29.948 A 2.629 2.629 0 0 0 105.926 29.766 A 3.524 3.524 0 0 0 106.535 29.349 A 4.551 4.551 0 0 0 106.934 28.969 A 5.764 5.764 0 0 0 107.595 28.103 A 6.722 6.722 0 0 0 107.789 27.773 A 5.597 5.597 0 0 0 108.275 26.576 A 6.412 6.412 0 0 0 108.352 26.273 Q 108.461 25.726 108.55 25.036 Z M 133.406 21.023 L 133.406 21.75 L 137.297 21.023 L 137.297 20.133 A 21.138 21.138 0 0 0 137.27 19.03 Q 137.214 17.966 137.043 17.246 A 5.221 5.221 0 0 0 136.992 17.051 Q 136.724 16.092 136.42 15.577 A 2.444 2.444 0 0 0 136.336 15.445 Q 136.036 15.013 135.678 14.84 A 1.148 1.148 0 0 0 135.375 14.742 A 1.44 1.44 0 0 0 134.354 15.298 A 1.784 1.784 0 0 0 134.297 15.375 A 3.238 3.238 0 0 0 133.967 15.972 Q 133.805 16.35 133.699 16.816 A 9.57 9.57 0 0 0 133.538 17.751 A 12.961 12.961 0 0 0 133.453 18.797 Q 133.406 19.898 133.406 21.023 Z M 193.477 23.282 A 0.021 0.021 0 0 1 193.477 23.286"/></g></svg>