<svg width="210.628" height="69.674" viewBox="0 0 210.628 69.674" xmlns="http://www.w3.org/2000/svg"><g id="svgGroup" stroke-linecap="round" fill-rule="evenodd" font-size="9pt" stroke="#243041" stroke-width="17" fill="#00000000" style="stroke:#243041;stroke-width:17;fill:#00000000"><path d="M 148.068 2.203 L 159.818 3.397 L 153.393 69.49 L 141.275 69.49 Q 141.138 65.451 140.977 61.894 A 180.229 180.229 0 0 0 140.672 56.726 A 158.502 158.502 0 0 0 140.541 55.078 A 251.016 251.016 0 0 0 139.921 48.698 A 277.596 277.596 0 0 0 139.141 42.318 Q 138.705 39.06 138.154 35.548 A 1747.227 1747.227 0 0 0 137.581 31.917 A 2120.669 2120.669 0 0 0 136.961 28.044 Q 136.089 33.185 134.528 43.443 Q 133.005 53.453 130.871 68.293 A 5573.602 5573.602 0 0 0 130.765 69.031 L 118.051 69.674 L 113.461 3.672 L 125.027 3.397 A 341.281 341.281 0 0 0 124.993 6.368 A 435.793 435.793 0 0 0 124.981 9.593 Q 124.942 12.078 124.936 15.19 A 581.005 581.005 0 0 0 124.936 16.225 L 124.936 24.189 L 124.936 30.982 A 981.885 981.885 0 0 0 124.958 37.752 A 11663.912 11663.912 0 0 0 124.993 42.601 A 10352.313 10352.313 0 0 0 125.004 44.154 A 225.894 225.894 0 0 0 125.045 47.092 A 168.267 168.267 0 0 0 125.119 49.754 L 131.407 9.776 L 142.01 9.776 L 147.013 47.872 Q 147.104 44.476 147.219 40.689 Q 147.334 36.902 147.426 33.047 A 1382.145 1382.145 0 0 0 147.586 25.428 A 891.769 891.769 0 0 1 147.703 19.963 A 779.309 779.309 0 0 1 147.747 18.222 A 2854.174 2854.174 0 0 0 148.068 2.203 Z M 21.71 1.607 L 33.001 1.882 Q 29.329 13.54 26.139 25.405 A 2248.569 2248.569 0 0 0 21.548 42.75 A 2013.934 2013.934 0 0 0 20.104 48.331 L 20.104 51.177 A 140.703 140.703 0 0 0 20.121 53.409 A 118.249 118.249 0 0 0 20.172 55.514 A 330.022 330.022 0 0 0 20.333 59.553 Q 20.425 61.55 20.585 63.638 A 194.893 194.893 0 0 0 20.763 65.79 A 231.889 231.889 0 0 0 20.976 68.067 L 9.96 68.067 Q 10.327 65.222 10.603 62.766 Q 10.878 60.311 11.039 57.924 A 159.242 159.242 0 0 0 11.288 53.092 A 172.786 172.786 0 0 0 11.291 53.013 A 134.32 134.32 0 0 0 11.36 50.374 A 172.346 172.346 0 0 0 11.383 47.505 A 4678.596 4678.596 0 0 0 9.391 39.355 A 5237.689 5237.689 0 0 0 8.698 36.535 A 1248.553 1248.553 0 0 0 5.829 25.107 Q 4.36 19.369 2.892 13.701 A 1174.63 1174.63 0 0 0 0.356 4.08 A 1058.445 1058.445 0 0 0 0 2.754 L 11.475 1.79 A 137.244 137.244 0 0 0 11.803 6.665 A 162.658 162.658 0 0 0 12.094 9.753 Q 12.53 13.953 13.127 18.314 A 324.37 324.37 0 0 0 14.458 27.126 A 511.094 511.094 0 0 0 15.973 35.847 Q 16.845 31.486 17.694 26.965 A 442.217 442.217 0 0 0 19.277 18.038 A 487.784 487.784 0 0 0 20.593 9.716 A 448.135 448.135 0 0 0 20.631 9.455 A 382.483 382.483 0 0 0 21.211 5.405 A 313.845 313.845 0 0 0 21.71 1.607 Z M 209.205 66.874 L 198.419 67.425 Q 199.429 60.035 199.865 52.462 A 267.377 267.377 0 0 0 200.274 40.689 A 306.198 306.198 0 0 0 200.301 36.581 A 35.144 35.144 0 0 0 200.265 34.941 Q 200.186 33.258 199.934 32.106 A 12.311 12.311 0 0 0 199.682 31.135 Q 199.536 30.658 199.364 30.268 A 4.816 4.816 0 0 0 198.97 29.536 A 4.327 4.327 0 0 0 198.588 29.039 Q 198.366 28.793 198.133 28.628 A 1.917 1.917 0 0 0 197.685 28.388 A 4.227 4.227 0 0 0 196.925 28.184 A 3.469 3.469 0 0 0 196.354 28.136 A 4.641 4.641 0 0 0 194.848 28.377 A 4.383 4.383 0 0 0 194.632 28.457 A 2.895 2.895 0 0 0 193.864 28.923 Q 193.582 29.156 193.316 29.475 A 5.475 5.475 0 0 0 193.141 29.696 A 6.338 6.338 0 0 0 192.65 30.47 Q 192.241 31.221 191.878 32.267 A 16.059 16.059 0 0 0 191.503 33.527 Q 191.163 34.85 190.892 36.627 Q 190.575 38.7 190.38 41.46 A 100.978 100.978 0 0 0 190.272 43.213 Q 190.13 45.88 190.086 49.251 A 244.335 244.335 0 0 0 190.065 52.462 L 190.065 56.478 A 352.538 352.538 0 0 0 190.071 58.515 A 301.613 301.613 0 0 0 190.088 60.448 A 1138.986 1138.986 0 0 0 190.108 62.011 Q 190.118 62.725 190.128 63.361 A 643.456 643.456 0 0 0 190.134 63.776 Q 190.157 65.21 190.248 65.809 A 3.709 3.709 0 0 0 190.249 65.818 L 179.876 65.727 A 760.384 760.384 0 0 0 179.99 62.008 Q 180.039 60.261 180.073 58.708 A 442.276 442.276 0 0 0 180.083 58.268 A 1603.736 1603.736 0 0 0 180.146 55.118 A 1233.347 1233.347 0 0 0 180.197 52.232 A 801.27 801.27 0 0 0 180.237 49.565 A 655.859 655.859 0 0 0 180.266 47.069 A 498.901 498.901 0 0 0 180.289 42.318 A 420.97 420.97 0 0 0 180.266 37.981 Q 180.243 35.755 180.22 33.185 Q 180.197 30.614 180.128 27.562 Q 180.06 24.51 179.968 20.792 L 190.708 20.517 L 190.524 25.198 A 19.583 19.583 0 0 1 191.562 23.452 Q 192.141 22.589 192.755 21.908 A 10.601 10.601 0 0 1 193.187 21.458 A 15.971 15.971 0 0 1 194.515 20.281 Q 195.219 19.729 195.916 19.33 A 9.79 9.79 0 0 1 196.009 19.277 A 10.337 10.337 0 0 1 197.456 18.605 A 8.013 8.013 0 0 1 198.74 18.245 A 15.956 15.956 0 0 1 199.852 18.072 Q 200.405 18.007 200.901 17.995 A 9.201 9.201 0 0 1 201.127 17.992 A 6.695 6.695 0 0 1 203.536 18.412 A 6.011 6.011 0 0 1 205.809 19.966 A 11.659 11.659 0 0 1 207.455 22.267 Q 208.07 23.375 208.55 24.716 A 20.451 20.451 0 0 1 208.723 25.221 A 29.995 29.995 0 0 1 209.635 28.738 Q 210.002 30.585 210.208 32.66 A 47.847 47.847 0 0 1 210.215 32.726 A 88.905 88.905 0 0 1 210.621 40.361 A 98.653 98.653 0 0 1 210.628 41.492 A 141.843 141.843 0 0 1 210.467 48.193 A 429.044 429.044 0 0 1 210.1 54.872 A 331.978 331.978 0 0 1 209.764 59.665 A 298.19 298.19 0 0 1 209.641 61.206 A 514.293 514.293 0 0 0 209.406 64.149 A 407.656 407.656 0 0 0 209.205 66.874 Z M 83.489 22.582 L 93.816 22.399 Q 93.449 29.788 93.312 37.017 A 762.794 762.794 0 0 0 93.174 51.544 A 1570.985 1570.985 0 0 0 93.197 60.081 A 322.61 322.61 0 0 0 93.357 68.618 L 84.224 68.848 L 84.224 63.11 Q 82.847 65.359 81.148 66.553 A 16.184 16.184 0 0 1 79.693 67.47 Q 78.921 67.898 78.184 68.176 A 9.436 9.436 0 0 1 77.913 68.274 A 14.924 14.924 0 0 1 76.864 68.594 Q 75.979 68.827 75.273 68.871 A 166.341 166.341 0 0 1 74.893 68.894 Q 74.137 68.94 73.988 68.94 A 9.687 9.687 0 0 1 70.993 67.808 A 8.682 8.682 0 0 1 69.192 66.392 A 13.245 13.245 0 0 1 66.952 63.275 A 16.593 16.593 0 0 1 66.163 61.527 A 24.959 24.959 0 0 1 65.108 58.008 A 32.278 32.278 0 0 1 64.579 54.941 A 60.172 60.172 0 0 1 64.149 49.226 A 68.715 68.715 0 0 1 64.12 47.23 A 93.94 93.94 0 0 1 64.396 40.115 A 173.615 173.615 0 0 1 65.084 32.978 A 195.297 195.297 0 0 1 65.877 27.009 A 177.633 177.633 0 0 1 66.002 26.185 A 301.154 301.154 0 0 1 66.507 23.012 A 244.611 244.611 0 0 1 67.012 20.058 L 77.018 20.241 A 364.521 364.521 0 0 0 76.599 23.064 A 459.415 459.415 0 0 0 76.168 26.116 A 197.411 197.411 0 0 0 75.388 32.588 A 159.198 159.198 0 0 0 74.837 39.22 Q 74.631 42.548 74.631 45.531 A 58.408 58.408 0 0 0 74.716 48.751 A 47.415 47.415 0 0 0 74.86 50.672 Q 75.058 52.723 75.458 54.317 A 16.48 16.48 0 0 0 75.595 54.826 Q 76.1 56.593 76.903 57.58 A 2.822 2.822 0 0 0 77.62 58.219 A 2.411 2.411 0 0 0 78.899 58.566 Q 80.313 58.566 81.275 57.022 A 6.048 6.048 0 0 0 81.47 56.685 A 12.216 12.216 0 0 0 82.192 55.036 Q 82.704 53.611 83.053 51.751 A 45.246 45.246 0 0 0 83.535 48.509 A 61.614 61.614 0 0 0 83.833 44.889 Q 84.04 41.079 84.04 37.224 A 164.088 164.088 0 0 0 83.993 33.209 A 141.184 141.184 0 0 0 83.948 31.716 Q 83.863 29.273 83.777 27.311 A 358.926 358.926 0 0 0 83.765 27.034 A 557.447 557.447 0 0 0 83.627 24.728 A 449.242 449.242 0 0 0 83.489 22.582 Z M 60.352 46.037 A 105.222 105.222 0 0 0 60.448 41.4 A 103.37 103.37 0 0 0 60.418 38.859 Q 60.368 36.81 60.233 34.993 A 54.892 54.892 0 0 0 59.897 31.716 A 55.043 55.043 0 0 0 59.685 30.28 Q 59.436 28.743 59.123 27.399 A 28.995 28.995 0 0 0 58.383 24.762 A 24.659 24.659 0 0 0 58.069 23.882 Q 57.655 22.791 57.182 21.876 A 12.905 12.905 0 0 0 56.088 20.104 Q 54.757 18.314 53.219 17.304 A 9.174 9.174 0 0 0 49.96 15.95 A 17.4 17.4 0 0 0 46.541 15.606 A 12.205 12.205 0 0 0 41.354 16.776 Q 39.777 17.507 38.414 18.974 A 14.659 14.659 0 0 0 36.856 20.999 Q 35.561 23.002 34.592 25.963 A 39.024 39.024 0 0 0 33.667 29.329 Q 32.45 34.607 32.45 42.869 Q 32.45 46.312 32.638 49.198 A 62.806 62.806 0 0 0 32.932 52.462 A 61.002 61.002 0 0 0 33.087 53.673 Q 33.546 56.992 34.286 59.484 A 25.956 25.956 0 0 0 34.572 60.387 Q 35.358 62.72 36.42 64.304 A 13.806 13.806 0 0 0 37.573 65.801 A 10.289 10.289 0 0 0 39.197 67.287 Q 40.712 68.389 42.479 68.802 A 15.085 15.085 0 0 0 42.812 68.876 A 16.316 16.316 0 0 0 46.174 69.215 A 14.129 14.129 0 0 0 49.938 68.71 A 9.333 9.333 0 0 0 50.223 68.627 A 9.729 9.729 0 0 0 53.357 66.966 A 11.36 11.36 0 0 0 54.894 65.5 A 15.123 15.123 0 0 0 56.249 63.684 A 14.39 14.39 0 0 0 56.675 62.973 Q 57.207 62.026 57.672 60.887 A 26.813 26.813 0 0 0 58.498 58.544 A 29.978 29.978 0 0 0 58.754 57.647 Q 59.51 54.85 59.943 51.223 Q 60.227 48.847 60.352 46.037 Z M 174.735 20.058 A 111.86 111.86 0 0 0 174.427 23.357 A 136.152 136.152 0 0 0 174.276 25.474 A 312.122 312.122 0 0 0 173.99 30.692 A 345.259 345.259 0 0 0 173.955 31.463 A 209.526 209.526 0 0 0 173.771 37.752 Q 173.726 40.941 173.726 44.017 A 343.537 343.537 0 0 0 173.764 49.245 A 307.704 307.704 0 0 0 173.794 50.924 A 345.393 345.393 0 0 0 173.875 54.12 A 266.916 266.916 0 0 0 173.978 57.052 A 186.455 186.455 0 0 0 174.087 59.379 Q 174.163 60.795 174.253 62.009 A 56.233 56.233 0 0 0 174.338 63.027 Q 174.44 64.128 174.565 64.91 A 14.386 14.386 0 0 0 174.644 65.359 A 79.841 79.841 0 0 0 171.812 65.411 A 89.09 89.09 0 0 0 170.834 65.451 Q 169.163 65.542 167.091 65.676 A 466.841 466.841 0 0 0 167.024 65.681 A 65.696 65.696 0 0 0 162.802 66.094 A 324.85 324.85 0 0 0 163.456 58.182 A 244.648 244.648 0 0 0 163.857 50.97 A 371.216 371.216 0 0 0 164.055 44.845 Q 164.133 41.548 164.133 38.647 A 236.146 236.146 0 0 0 164.11 35.3 Q 164.091 33.974 164.057 32.763 A 134.25 134.25 0 0 0 163.972 30.454 A 286.253 286.253 0 0 0 163.848 27.972 Q 163.796 27.001 163.74 26.136 A 139.51 139.51 0 0 0 163.628 24.51 A 95.081 95.081 0 0 0 163.477 22.492 Q 163.341 20.907 163.169 19.645 A 67.42 67.42 0 0 0 165.63 19.909 A 50.506 50.506 0 0 0 167.874 20.058 A 116.38 116.38 0 0 0 169.394 20.114 Q 169.993 20.132 170.537 20.141 A 62.701 62.701 0 0 0 171.568 20.149 L 172.899 20.149 A 12.974 12.974 0 0 0 173.321 20.143 Q 173.525 20.136 173.701 20.123 A 6.088 6.088 0 0 0 173.909 20.104 A 9.147 9.147 0 0 0 174.235 20.098 Q 174.38 20.093 174.505 20.083 A 3.807 3.807 0 0 0 174.735 20.058 Z M 50.435 36.562 A 41.788 41.788 0 0 0 50.259 34.539 Q 49.952 31.845 49.437 30.217 A 10.748 10.748 0 0 0 49.387 30.064 A 8.895 8.895 0 0 0 49.059 29.216 Q 48.678 28.373 48.209 27.926 A 2.244 2.244 0 0 0 48.056 27.792 Q 47.275 27.172 46.357 27.172 A 2.28 2.28 0 0 0 44.772 27.809 A 3.225 3.225 0 0 0 44.521 28.067 Q 43.741 28.962 43.213 30.936 Q 42.686 32.909 42.41 36.007 A 61.769 61.769 0 0 0 42.242 38.521 Q 42.135 40.775 42.135 43.558 A 97.125 97.125 0 0 0 42.179 46.592 Q 42.224 48.014 42.313 49.236 A 41.876 41.876 0 0 0 42.479 51.016 A 35.811 35.811 0 0 0 42.721 52.75 Q 43.016 54.522 43.439 55.734 A 10.896 10.896 0 0 0 43.443 55.744 Q 44.032 57.423 44.828 58.17 A 2.8 2.8 0 0 0 44.912 58.245 A 3.287 3.287 0 0 0 45.62 58.721 A 2.494 2.494 0 0 0 46.725 58.98 A 1.954 1.954 0 0 0 48.208 58.263 Q 48.872 57.53 49.337 56.044 A 14.81 14.81 0 0 0 49.662 54.803 A 27.621 27.621 0 0 0 50.064 52.422 Q 50.417 49.68 50.528 45.708 A 140.666 140.666 0 0 0 50.58 41.768 Q 50.58 38.807 50.435 36.562 Z M 177.272 8.56 A 7.747 7.747 0 0 0 177.489 6.701 A 8.598 8.598 0 0 0 177.487 6.519 A 7.572 7.572 0 0 0 177.053 4.108 A 5.848 5.848 0 0 0 175.722 1.974 A 5.551 5.551 0 0 0 174.701 1.153 A 7.044 7.044 0 0 0 173.427 0.528 A 6.784 6.784 0 0 0 172.999 0.383 Q 172.338 0.183 171.563 0.087 A 12.358 12.358 0 0 0 170.054 0 A 14.131 14.131 0 0 0 169.65 0.006 Q 167.932 0.055 166.657 0.528 A 7.38 7.38 0 0 0 165.664 0.979 A 5.616 5.616 0 0 0 164.339 1.974 Q 163.444 2.892 163.031 4.108 Q 162.618 5.324 162.618 6.701 A 9.813 9.813 0 0 0 162.646 7.443 A 8.228 8.228 0 0 0 163.008 9.34 Q 163.398 10.557 164.293 11.452 A 5.45 5.45 0 0 0 165.317 12.251 A 6.999 6.999 0 0 0 166.588 12.852 Q 167.463 13.167 168.598 13.286 A 14.063 14.063 0 0 0 170.054 13.357 Q 170.995 13.357 171.815 13.23 A 8.11 8.11 0 0 0 173.335 12.852 A 7.506 7.506 0 0 0 174.241 12.458 A 5.876 5.876 0 0 0 175.653 11.452 A 5.743 5.743 0 0 0 177.03 9.34 A 6.848 6.848 0 0 0 177.272 8.56 Z" vector-effect="non-scaling-stroke"/></g></svg>